<?xml version="1.0" encoding="UTF-8" standalone="no"?>
<svg
   xmlns:dc="http://purl.org/dc/elements/1.1/"
   xmlns:cc="http://creativecommons.org/ns#"
   xmlns:rdf="http://www.w3.org/1999/02/22-rdf-syntax-ns#"
   xmlns:svg="http://www.w3.org/2000/svg"
   xmlns="http://www.w3.org/2000/svg"
   xmlns:sodipodi="http://sodipodi.sourceforge.net/DTD/sodipodi-0.dtd"
   xmlns:inkscape="http://www.inkscape.org/namespaces/inkscape"
   width="172.86147mm"
   height="172.86111mm"
   viewBox="0 0 172.86147 172.86111"
   version="1.1"
   id="svg117"
   inkscape:version="1.0.2 (e86c870879, 2021-01-15)"
   sodipodi:docname="about_me.svg">
  <defs
     id="defs111" />
  <sodipodi:namedview
     id="base"
     pagecolor="#ffffff"
     bordercolor="#666666"
     borderopacity="1.0"
     inkscape:pageopacity="0.0"
     inkscape:pageshadow="2"
     inkscape:zoom="0.35"
     inkscape:cx="299.77"
     inkscape:cy="367.60416"
     inkscape:document-units="mm"
     inkscape:current-layer="layer1"
     inkscape:document-rotation="0"
     showgrid="false"
     inkscape:window-width="1412"
     inkscape:window-height="908"
     inkscape:window-x="45"
     inkscape:window-y="45"
     inkscape:window-maximized="0" />
  <metadata
     id="metadata114">
    <rdf:RDF>
      <cc:Work
         rdf:about="">
        <dc:format>image/svg+xml</dc:format>
        <dc:type
           rdf:resource="http://purl.org/dc/dcmitype/StillImage" />
        <dc:title></dc:title>
      </cc:Work>
    </rdf:RDF>
  </metadata>
  <g
     inkscape:label="Layer 1"
     inkscape:groupmode="layer"
     id="layer1"
     transform="translate(-26.519187,-50.904733)">
    <path
       d="M 162.33863,149.68251 V 66.33876 c 0,-8.510763 -6.92044,-15.434027 -15.43403,-15.434027 H 51.213631 c -8.652581,0 -15.434028,4.74733 -15.434028,10.803819 v 4.630208 c -5.105752,0 -9.260416,4.154664 -9.260416,9.260416 0,5.105753 4.154664,9.260417 9.260416,9.260417 v 9.263239 c -5.105752,0 -9.260416,4.154664 -9.260416,9.260418 0,5.10575 4.154664,9.26041 9.260416,9.26041 v 9.26042 c -5.105752,0 -9.260416,4.15466 -9.260416,9.26042 0,5.10575 4.154664,9.26041 9.260416,9.26041 v 9.26324 c -5.105752,0 -9.260416,4.15467 -9.260416,9.26042 0,5.10575 4.154664,9.26042 9.260416,9.26042 v 9.26041 c -5.105752,0 -9.260416,4.15466 -9.260416,9.26041 0,5.10576 4.154664,9.26042 9.260416,9.26042 v 4.62457 c 0,6.05931 6.781447,10.80381 15.434028,10.80381 h 83.590699 c 6.78815,7.55721 16.59713,12.34723 27.53465,12.34723 20.42513,0 37.04167,-16.61901 37.04167,-37.04167 0,-20.42265 -16.61654,-37.04166 -37.04167,-37.04166 z M 32.692798,75.599176 c 0,-1.700494 1.386311,-3.086805 3.086805,-3.086805 h 9.260417 c 1.707374,0 3.086805,1.386311 3.086805,3.086805 0,1.703247 -1.379431,3.086806 -3.086805,3.086806 h -9.260417 c -1.700494,0 -3.086805,-1.383559 -3.086805,-3.086806 z m 0,27.784074 c 0,-1.70325 1.386311,-3.08681 3.086805,-3.08681 h 9.260417 c 1.707374,0 3.086805,1.38356 3.086805,3.08681 0,1.70049 -1.379431,3.0868 -3.086805,3.0868 h -6.167967 c 0,0 0,-0.003 -0.0055,-0.003 l -0.0055,0.003 H 35.77975 c -1.700494,0 -3.086805,-1.38631 -3.086805,-3.0868 z m 0,27.78125 c 0,-1.7005 1.386311,-3.08681 3.086805,-3.08681 h 9.260417 c 1.707374,0 3.086805,1.38631 3.086805,3.08681 0,1.70324 -1.379431,3.0868 -3.086805,3.0868 H 38.8844 c -0.0055,0 -0.01242,-0.003 -0.01792,-0.003 -0.0055,0 -0.0055,0.003 -0.01242,0.003 h -3.074388 c -1.700495,0 -3.086806,-1.38218 -3.086806,-3.0868 z m 0,27.78407 c 0,-1.70325 1.386311,-3.08681 3.086805,-3.08681 h 9.260417 c 1.707374,0 3.086805,1.38356 3.086805,3.08681 0,1.70049 -1.379431,3.0868 -3.086805,3.0868 h -6.148917 c -0.0069,0 -0.01242,-0.006 -0.0248,-0.006 -0.0055,0 -0.01242,0.006 -0.01792,0.006 h -3.068885 c -1.700494,0 -3.086805,-1.38493 -3.086805,-3.0868 z m 0,27.78124 c 0,-1.70049 1.386311,-3.0868 3.086805,-3.0868 h 9.260417 c 1.707374,0 3.086805,1.38631 3.086805,3.0868 0,1.70325 -1.379431,3.08681 -3.086805,3.08681 h -6.143272 c -0.01242,0 -0.01792,-0.005 -0.0303,-0.005 -0.01238,0 -0.01792,0.005 -0.0303,0.005 h -3.056501 c -1.700495,0 -3.086806,-1.38218 -3.086806,-3.08681 z m 9.260416,13.88499 v -4.62457 h 3.086806 c 5.105752,0 9.260416,-4.15466 9.260416,-9.26042 0,-5.10575 -4.154664,-9.26041 -9.260416,-9.26041 h -3.086806 v -9.26041 h 3.086806 c 5.105752,0 9.260416,-4.15467 9.260416,-9.26042 0,-5.10575 -4.154664,-9.26042 -9.260416,-9.26042 h -3.086806 v -9.26324 h 3.086806 c 5.105752,0 9.260416,-4.15466 9.260416,-9.26041 0,-5.10576 -4.154664,-9.26042 -9.260416,-9.26042 h -3.086806 v -9.26042 h 3.086806 c 5.105752,0 9.260416,-4.15466 9.260416,-9.26041 0,-5.105754 -4.154664,-9.260418 -9.260416,-9.260418 h -3.086806 v -9.263239 h 3.086806 c 5.105752,0 9.260416,-4.154664 9.260416,-9.260417 0,-5.105752 -4.154664,-9.260416 -9.260416,-9.260416 h -3.086806 v -4.630208 c 0,-2.138715 4.04742,-4.630208 9.260417,-4.630208 H 63.560853 V 205.245 H 51.213631 c -5.212997,0 -9.260417,-2.48736 -9.260417,-4.6302 z m 27.78125,4.6302 V 57.078344 H 146.9046 c 5.10576,0 9.26042,4.154664 9.26042,9.260416 v 83.90114 c -17.49002,2.95176 -30.86806,18.16382 -30.86806,36.48427 0,6.75111 1.84658,13.06371 5.01051,18.52083 z m 92.604166,12.34723 c -17.02012,0 -30.86805,-13.84794 -30.86805,-30.86806 0,-17.02435 13.84793,-30.86805 30.86805,-30.86805 17.02012,0 30.86806,13.8437 30.86806,30.86805 0,17.02012 -13.84794,30.86806 -30.86806,30.86806 z M 137.49249,115.8864 c 0.006,-0.003 0.006,-0.01 0.0124,-0.0124 0,-0.005 0.006,-0.01 0.0124,-0.0152 0,-0.003 0,-0.01 0.006,-0.0124 4.05694,-5.26556 6.29496,-11.88438 6.29496,-18.640779 0,-17.020117 -13.84794,-30.868055 -30.86805,-30.868055 -17.020122,0 -30.868062,13.847938 -30.868062,30.868055 0,6.772979 2.25034,13.409789 6.3059,18.653129 5.86494,7.76393 14.820902,12.21493 24.562162,12.21493 1.21955,0 2.42259,-0.0675 3.61174,-0.20395 8.3192,-0.95913 15.81291,-5.21582 20.93101,-11.98351 z M 112.94974,72.512371 c 13.61899,0 24.69445,11.077928 24.69445,24.694444 0,3.843515 -0.94121,7.605535 -2.62929,10.988325 -3.25078,-4.30354 -7.62177,-7.49794 -12.63121,-9.294991 1.79282,-2.144219 2.91317,-4.86022 2.91317,-7.867297 0,-6.806142 -5.54108,-12.347223 -12.34722,-12.347223 -6.81285,0 -12.34723,5.541081 -12.34723,12.347223 0,3.006866 1.12036,5.725583 2.91042,7.871177 -5.010502,1.796981 -9.380362,4.991101 -12.631212,9.294991 -1.68532,-3.37757 -2.62653,-7.14657 -2.62653,-10.992558 0,-13.616516 11.08216,-24.694444 24.694442,-24.694444 z m 0,24.694444 c -3.4079,0 -6.17361,-2.765707 -6.17361,-6.173611 0,-3.405117 2.76571,-6.173611 6.17361,-6.173611 3.40099,0 6.17361,2.768494 6.17361,6.173611 0,3.407904 -2.77262,6.173611 -6.17361,6.173611 z m -2.77262,24.537455 c -0.29628,-0.0345 -0.58981,-0.0992 -0.88607,-0.14193 -0.60773,-0.0896 -1.21955,-0.1819 -1.81487,-0.31833 -0.33624,-0.0744 -0.67662,-0.1819 -1.01286,-0.27147 -0.53742,-0.14883 -1.07488,-0.29352 -1.5985,-0.47544 -0.34314,-0.11713 -0.67663,-0.25632 -1.01286,-0.38862 -0.50575,-0.20119 -1.00598,-0.40788 -1.50068,-0.64216 -0.32384,-0.15434 -0.64492,-0.32384 -0.96602,-0.49749 -0.48094,-0.25631 -0.95359,-0.52229 -1.416612,-0.81167 -0.30868,-0.19155 -0.60219,-0.38862 -0.90399,-0.58981 -0.45061,-0.31419 -0.89158,-0.63941 -1.32705,-0.98115 -0.28387,-0.22186 -0.56225,-0.44785 -0.83372,-0.68213 -0.42305,-0.36794 -0.83372,-0.75378 -1.22922,-1.15203 -0.25907,-0.25356 -0.51816,-0.50299 -0.75928,-0.7717 -0.11989,-0.12678 -0.22187,-0.26596 -0.33624,-0.3955 3.90243,-6.36376 10.767842,-10.24431 18.370552,-10.24431 7.60271,0 14.47341,3.88055 18.37619,10.24855 -0.11437,0.12402 -0.21635,0.25907 -0.33072,0.38308 -0.26597,0.29076 -0.54297,0.56501 -0.82131,0.83647 -0.37345,0.36795 -0.75378,0.72485 -1.14515,1.06796 -0.30317,0.25907 -0.60219,0.50574 -0.91641,0.74965 -0.40375,0.31833 -0.81442,0.62287 -1.24023,0.91363 -0.32108,0.22186 -0.64491,0.44097 -0.97564,0.64491 -0.44097,0.27147 -0.88607,0.52229 -1.33946,0.76207 -0.33624,0.18466 -0.68213,0.36379 -1.03078,0.53054 -0.46852,0.226 -0.95359,0.42306 -1.43591,0.61461 -0.35553,0.13919 -0.70693,0.28664 -1.06246,0.41067 -0.51262,0.17915 -1.04317,0.32109 -1.56821,0.46302 -0.34864,0.0923 -0.68901,0.19706 -1.03766,0.28112 -0.59531,0.13229 -1.20025,0.22187 -1.80936,0.3142 -0.29628,0.0427 -0.58981,0.10748 -0.89157,0.14193 -0.90675,0.0992 -1.83554,0.15848 -2.77125,0.15848 -0.93571,0 -1.85759,-0.0593 -2.77262,-0.1571 z m 52.16172,40.28722 c -5.10575,0 -9.26041,4.15467 -9.26041,9.26042 0,5.10575 4.15466,9.26041 9.26041,9.26041 5.10575,0 9.26042,-4.15466 9.26042,-9.26041 0,-5.10575 -4.15467,-9.26042 -9.26042,-9.26042 z m 0,12.34723 c -1.70737,0 -3.0868,-1.38631 -3.0868,-3.08681 0,-1.70325 1.37943,-3.08681 3.0868,-3.08681 1.7005,0 3.08681,1.38356 3.08681,3.08681 0,1.7005 -1.38631,3.08681 -3.08681,3.08681 z m 9.26042,30.86805 c 0,1.70324 -1.37943,3.0868 -3.08681,3.0868 h -6.17361 c -1.70737,0 -3.0868,-1.38356 -3.0868,-3.0868 v -15.43403 h -3.08681 c -1.70737,0 -3.0868,-1.38356 -3.0868,-3.08681 0,-1.70737 1.37943,-3.0868 3.0868,-3.0868 h 6.17361 c 1.70738,0 3.08681,1.37943 3.08681,3.0868 v 15.43403 h 3.0868 c 1.70738,0 3.08681,1.37943 3.08681,3.08681 z"
       id="path52"
       style="stroke-width:0.352778" />
  </g>
</svg>
