<svg xmlns="http://www.w3.org/2000/svg" width="653.3" height="653.3" viewBox="0 0 172.9 172.9"><path d="M162.3 149.7V66.3c0-8.5-6.9-15.4-15.4-15.4H51.2c-8.6 0-15.4 4.8-15.4 10.8v4.6a9.3 9.3 0 0 0 0 18.6V94a9.3 9.3 0 0 0 0 18.5v9.3a9.3 9.3 0 0 0 0 18.5v9.3a9.3 9.3 0 0 0 0 18.5v9.3a9.3 9.3 0 0 0 0 18.5v4.6c0 6 6.8 10.8 15.4 10.8h83.6a37 37 0 0 0 64.6-24.7 37 37 0 0 0-37-37zM32.7 75.6a3 3 0 0 1 3-3H45a3 3 0 0 1 0 6h-9.2a3 3 0 0 1-3.1-3zm0 27.8a3 3 0 0 1 3-3.1H45a3 3 0 1 1 0 6.2h-9.2a3 3 0 0 1-3.1-3.1zm0 27.8a3 3 0 0 1 3-3.1H45a3 3 0 0 1 0 6.2h-9.2a3 3 0 0 1-3.1-3.1zm0 27.7a3 3 0 0 1 3-3H45a3 3 0 1 1 0 6.1h-9.2a3 3 0 0 1-3.1-3zm0 27.8a3 3 0 0 1 3-3H45a3 3 0 0 1 0 6.1h-9.2a3 3 0 0 1-3.1-3zm9.3 14V196h3a9.3 9.3 0 0 0 0-18.5h-3v-9.3h3a9.3 9.3 0 0 0 0-18.5h-3v-9.3h3a9.3 9.3 0 0 0 0-18.5h-3v-9.3h3a9.3 9.3 0 0 0 0-18.5h-3V85h3a9.3 9.3 0 0 0 0-18.6h-3v-4.6c0-2.1 4-4.6 9.2-4.6h12.4v148.1H51.2c-5.2 0-9.2-2.4-9.2-4.6zm27.7 4.5V57.1H147c5.1 0 9.3 4.1 9.3 9.2v84a37 37 0 0 0-25.9 55zm92.6 12.4a30.9 30.9 0 1 1 .1-61.8 30.9 30.9 0 0 1 0 61.8zm-24.8-101.7a30.9 30.9 0 1 0-49.2-37.3 30.9 30.9 0 0 0 49.2 37.3zm-24.6-43.4a24.7 24.7 0 0 1 22.1 35.7 27.4 27.4 0 0 0-12.6-9.3 12.4 12.4 0 1 0-21.8-7.9c0 3 1.1 5.8 3 7.9-5.1 1.8-9.5 5-12.7 9.3a24.7 24.7 0 0 1 22-35.7zm0 24.7a6.2 6.2 0 1 1 0-12.3 6.2 6.2 0 0 1 0 12.3zm-2.7 24.5-1-.1-1.7-.3c-.4 0-.7-.2-1-.3l-1.6-.5c-.4 0-.7-.2-1-.4a25.6 25.6 0 0 1-4-1.9l-.8-.6a29.1 29.1 0 0 1-3.4-2.8l-.8-.8-.3-.4a21.4 21.4 0 0 1 18.3-10.2c7.7 0 14.5 3.9 18.4 10.2 0 .2-.2.3-.3.4a20.5 20.5 0 0 1-2.9 2.7 22.4 22.4 0 0 1-6 3.4l-1 .4-1.6.5-1 .3-1.9.3-.9.1a25.5 25.5 0 0 1-5.5 0zm52.1 40.3a9.3 9.3 0 1 0 0 18.6 9.3 9.3 0 0 0 0-18.6zm0 12.4a3 3 0 1 1 0-6.2 3 3 0 0 1 0 6.2zm9.3 30.8a3 3 0 0 1-3 3.1h-6.3a3 3 0 0 1-3-3v-15.5h-3.1a3 3 0 1 1 0-6.2h6.1a3 3 0 0 1 3.1 3.1v15.5h3.1a3 3 0 0 1 3.1 3z" style="stroke-width:.352778" transform="translate(-26.5 -50.9)"/></svg>