<?xml version="1.0" encoding="UTF-8" standalone="no"?>
<svg
   xmlns:dc="http://purl.org/dc/elements/1.1/"
   xmlns:cc="http://creativecommons.org/ns#"
   xmlns:rdf="http://www.w3.org/1999/02/22-rdf-syntax-ns#"
   xmlns:svg="http://www.w3.org/2000/svg"
   xmlns="http://www.w3.org/2000/svg"
   xmlns:sodipodi="http://sodipodi.sourceforge.net/DTD/sodipodi-0.dtd"
   xmlns:inkscape="http://www.inkscape.org/namespaces/inkscape"
   width="175.39156mm"
   height="172.86848mm"
   viewBox="0 0 175.39156 172.86848"
   version="1.1"
   id="svg157"
   inkscape:version="1.0.2 (e86c870879, 2021-01-15)"
   sodipodi:docname="contact.svg">
  <defs
     id="defs151" />
  <sodipodi:namedview
     id="base"
     pagecolor="#ffffff"
     bordercolor="#666666"
     borderopacity="1.0"
     inkscape:pageopacity="0.0"
     inkscape:pageshadow="2"
     inkscape:zoom="0.35"
     inkscape:cx="335.89059"
     inkscape:cy="385.33015"
     inkscape:document-units="mm"
     inkscape:current-layer="layer1"
     inkscape:document-rotation="0"
     showgrid="false"
     inkscape:window-width="1412"
     inkscape:window-height="908"
     inkscape:window-x="45"
     inkscape:window-y="45"
     inkscape:window-maximized="0" />
  <metadata
     id="metadata154">
    <rdf:RDF>
      <cc:Work
         rdf:about="">
        <dc:format>image/svg+xml</dc:format>
        <dc:type
           rdf:resource="http://purl.org/dc/dcmitype/StillImage" />
        <dc:title></dc:title>
      </cc:Work>
    </rdf:RDF>
  </metadata>
  <g
     inkscape:label="Layer 1"
     inkscape:groupmode="layer"
     id="layer1"
     transform="translate(-16.962281,-46.21473)">
    <path
       d="m 192.29094,113.7872 c 0.005,-0.10473 0.005,-0.21084 0,-0.31557 v -0.23703 c 0.23427,-1.11897 -0.19706,-2.271 -1.10656,-2.96276 L 107.14566,46.81417 c -1.05696,-0.799253 -2.51767,-0.799253 -3.57611,0 l -85.915492,64.60067 -0.197058,0.27698 -0.158475,0.15848 -0.118512,0.1378 -0.118512,0.17777 -0.09922,0.17777 v 1.10518 0.21773 0 96.52705 c 0,2.35783 0.937048,4.61927 2.604488,6.2865 1.667439,1.66744 3.927475,2.60311 6.285088,2.60311 H 183.40241 c 2.35782,0 4.61927,-0.93567 6.2865,-2.60311 1.66744,-1.66744 2.60311,-3.92888 2.60311,-6.2865 v -96.32597 -0.0799 z M 105.3665,52.880117 182.13447,110.90148 H 28.298669 Z m 75.07111,63.926863 -77.04667,58.47644 -75.310994,-58.45528 z m 2.96277,96.26952 H 25.355938 c -1.606797,0 -2.920048,-1.27882 -2.962769,-2.88424 v -90.26172 l 79.180971,61.45742 c 1.06521,0.81992 2.55076,0.81992 3.61597,0 l 81.17416,-61.55972 v 90.36049 c -0.0427,1.60543 -1.356,2.88424 -2.96276,2.88424 z"
       id="path64"
       style="stroke-width:0.352778" />
  </g>
</svg>
