<?xml version="1.0" encoding="UTF-8" standalone="no"?>
<svg
   xmlns:dc="http://purl.org/dc/elements/1.1/"
   xmlns:cc="http://creativecommons.org/ns#"
   xmlns:rdf="http://www.w3.org/1999/02/22-rdf-syntax-ns#"
   xmlns:svg="http://www.w3.org/2000/svg"
   xmlns="http://www.w3.org/2000/svg"
   xmlns:sodipodi="http://sodipodi.sourceforge.net/DTD/sodipodi-0.dtd"
   xmlns:inkscape="http://www.inkscape.org/namespaces/inkscape"
   width="186.68753mm"
   height="186.68752mm"
   viewBox="0 0 186.68753 186.68752"
   version="1.1"
   id="svg2484"
   inkscape:version="1.0.2 (e86c870879, 2021-01-15)"
   sodipodi:docname="electronics_icon.svg">
  <defs
     id="defs2478" />
  <sodipodi:namedview
     id="base"
     pagecolor="#ffffff"
     bordercolor="#666666"
     borderopacity="1.0"
     inkscape:pageopacity="0.0"
     inkscape:pageshadow="2"
     inkscape:zoom="0.35"
     inkscape:cx="361.65693"
     inkscape:cy="355.88684"
     inkscape:document-units="mm"
     inkscape:current-layer="layer1"
     inkscape:document-rotation="0"
     showgrid="false"
     inkscape:window-width="1412"
     inkscape:window-height="908"
     inkscape:window-x="45"
     inkscape:window-y="45"
     inkscape:window-maximized="0" />
  <metadata
     id="metadata2481">
    <rdf:RDF>
      <cc:Work
         rdf:about="">
        <dc:format>image/svg+xml</dc:format>
        <dc:type
           rdf:resource="http://purl.org/dc/dcmitype/StillImage" />
        <dc:title></dc:title>
      </cc:Work>
    </rdf:RDF>
  </metadata>
  <g
     inkscape:label="Layer 1"
     inkscape:groupmode="layer"
     id="layer1"
     transform="translate(-10.144937,-54.004939)">
    <path
       d="m 192.8817,151.29964 c 2.18144,0 3.95076,-1.77077 3.95076,-3.95076 0,-2.18144 -1.77077,-3.95076 -3.95076,-3.95076 h -32.92263 v -23.38528 h 32.92263 c 2.18144,0 3.95076,-1.77077 3.95076,-3.95076 0,-2.18144 -1.77077,-3.95076 -3.95076,-3.95076 h -32.92263 v -8.34143 c 0,-7.107768 -5.78485,-12.890149 -12.89015,-12.890149 h -8.34249 V 57.955698 c 0,-2.181437 -1.77077,-3.950759 -3.95076,-3.950759 -2.18143,0 -3.95075,1.770768 -3.95075,3.950759 V 90.879741 H 107.43963 V 57.955698 c 0,-2.181437 -1.77076,-3.950759 -3.95075,-3.950759 -2.18144,0 -3.950761,1.770768 -3.950761,3.950759 V 90.879741 H 76.152833 V 57.955698 c 0,-2.181437 -1.770768,-3.950759 -3.950758,-3.950759 -2.181437,0 -3.950759,1.770768 -3.950759,3.950759 v 32.924043 h -8.34143 c -7.107766,0 -12.892969,5.782381 -12.892969,12.890149 v 8.34143 H 14.095695 c -2.181436,0 -3.950758,1.77077 -3.950758,3.95076 0,2.18143 1.770768,3.95076 3.950758,3.95076 h 32.922633 v 23.38528 H 14.095695 c -2.181436,0 -3.950758,1.77077 -3.950758,3.95076 0,2.18143 1.770768,3.95076 3.950758,3.95076 h 32.922633 v 23.38528 H 14.095695 c -2.181436,0 -3.950758,1.77077 -3.950758,3.95076 0,2.18144 1.770768,3.95076 3.950758,3.95076 h 32.922633 v 8.34249 c 0,7.10776 5.78485,12.89014 12.892969,12.89014 h 8.341431 l -0.0014,32.92264 c 0,2.18143 1.770769,3.95075 3.950759,3.95075 2.181436,0 3.950758,-1.77076 3.950758,-3.95075 v -32.92264 h 23.385286 v 32.92264 c 0,2.18143 1.770769,3.95075 3.950759,3.95075 2.18143,0 3.95076,-1.77076 3.95076,-3.95075 v -32.92264 h 23.38528 v 32.92264 c 0,2.18143 1.77076,3.95075 3.95075,3.95075 2.18144,0 3.95076,-1.77076 3.95076,-3.95075 v -32.92264 h 8.34249 c 7.10777,0 12.89015,-5.78485 12.89015,-12.89014 v -8.34249 h 32.92263 c 2.18144,0 3.95076,-1.77077 3.95076,-3.95076 0,-2.18144 -1.77077,-3.95076 -3.95076,-3.95076 h -32.92263 v -23.38528 z m -40.82344,39.63105 c 0,2.75195 -2.23795,4.98863 -4.98863,4.98863 H 59.908828 c -2.751949,0 -4.990042,-2.23795 -4.990042,-4.98863 v -87.1608 c 0,-2.75195 2.237952,-4.988632 4.990042,-4.988632 h 87.160802 c 2.75195,0 4.98863,2.237952 4.98863,4.988632 z"
       id="path2379"
       style="stroke-width:0.352778" />
  </g>
</svg>
