<svg xmlns="http://www.w3.org/2000/svg" width="681.2" height="654.1" viewBox="0 0 180.2 173.1"><path d="M82.5 195.2c0-3.8 5.8-3.8 5.8 0v7.4h31.3v-7.4c0-3.8 5.8-3.8 5.8 0v7.4h7.4v-14.4c0-6.8-5.6-12.4-12.4-12.4H87.5c-6.8 0-12.3 5.6-12.3 12.4v14.4h7.3zm21.4-65a19.2 19.2 0 1 1 0 38.4 19.2 19.2 0 0 1 0-38.4zm9.5 9.7a13.4 13.4 0 0 0-22.9 9.5 13.4 13.4 0 1 0 23-9.5zM87.5 170h33c9.9 0 18 8.2 18 18.2v14.4h11a3 3 0 0 1 3 2.9v20.2a3 3 0 0 1-3 2.9h-91a2.9 2.9 0 0 1-3-3v-20.1a3 3 0 0 1 3-3h10.9v-14.3c0-10 8-18.2 18.1-18.2zm59 38.4H61.4v14.4h85.3ZM58.8 161c-1.5.6-3.1-.2-3.7-1.7-.6-1.4.1-3.2 1.6-3.7l17.5-6.9a2.9 2.9 0 1 1 2.1 5.5zm92.5-5.4a3 3 0 0 1 1.7 3.7 2.9 2.9 0 0 1-3.7 1.7l-17.5-6.8a3 3 0 0 1-1.7-3.8 2.9 2.9 0 0 1 3.8-1.7zm-50.3-50c0-3.8 5.9-3.8 5.9 0v16.8c0 3.9-5.9 3.9-5.9 0zm65.2 40.5h25a3 3 0 0 1 2.8 3v23.3a3 3 0 0 1-2.9 2.9h-24.9a3 3 0 0 1-3-3V149a3 3 0 0 1 3-2.9zm22 5.9h-19.1v17.5h19.1zm-153-6.3 7.9 13.6L51 173a3 3 0 0 1-2.5 4.4H16.7a2.9 2.9 0 0 1-2.4-4.6l15.8-27.3a3 3 0 0 1 5.1.2zm2.9 16.5-5.5-9.4-10.8 18.8h21.7zm65.8-94.4-2.5 8a3 3 0 0 1-3 2h-8l6.7 4.8a3 3 0 0 1 1 3.3l-2.6 7.8 6.7-4.9c1-.8 2.4-.7 3.5 0l6.6 4.9-2.6-7.9a3 3 0 0 1 1-3.2l6.8-5h-8.3a3 3 0 0 1-2.7-2zM96.5 72l4.7-14.5a3 3 0 0 1 5.5 0l4.7 14.5h14.9a2.9 2.9 0 0 1 1.9 5.1l-12.2 9 4.7 14.3c.8 2.6-2.2 4.9-4.5 3.2l-12.3-9-12 8.9a3 3 0 0 1-4.6-3.1L91.9 86l-12.2-8.9c-2.2-1.6-1.1-5.2 1.7-5.2z" style="stroke-width:.352778" transform="translate(-13.8 -55.5)"/></svg>