<?xml version="1.0" encoding="UTF-8" standalone="no"?>
<svg
   xmlns:dc="http://purl.org/dc/elements/1.1/"
   xmlns:cc="http://creativecommons.org/ns#"
   xmlns:rdf="http://www.w3.org/1999/02/22-rdf-syntax-ns#"
   xmlns:svg="http://www.w3.org/2000/svg"
   xmlns="http://www.w3.org/2000/svg"
   xmlns:sodipodi="http://sodipodi.sourceforge.net/DTD/sodipodi-0.dtd"
   xmlns:inkscape="http://www.inkscape.org/namespaces/inkscape"
   width="180.23938mm"
   height="173.06126mm"
   viewBox="0 0 180.23938 173.06126"
   version="1.1"
   id="svg165"
   inkscape:version="1.0.2 (e86c870879, 2021-01-15)"
   sodipodi:docname="experience.svg">
  <defs
     id="defs159" />
  <sodipodi:namedview
     id="base"
     pagecolor="#ffffff"
     bordercolor="#666666"
     borderopacity="1.0"
     inkscape:pageopacity="0.0"
     inkscape:pageshadow="2"
     inkscape:zoom="0.35"
     inkscape:cx="347.80852"
     inkscape:cy="350.10295"
     inkscape:document-units="mm"
     inkscape:current-layer="layer1"
     inkscape:document-rotation="0"
     showgrid="false"
     inkscape:window-width="1412"
     inkscape:window-height="908"
     inkscape:window-x="45"
     inkscape:window-y="45"
     inkscape:window-maximized="0" />
  <metadata
     id="metadata162">
    <rdf:RDF>
      <cc:Work
         rdf:about="">
        <dc:format>image/svg+xml</dc:format>
        <dc:type
           rdf:resource="http://purl.org/dc/dcmitype/StillImage" />
        <dc:title></dc:title>
      </cc:Work>
    </rdf:RDF>
  </metadata>
  <g
     inkscape:label="Layer 1"
     inkscape:groupmode="layer"
     id="layer1"
     transform="translate(-13.808997,-55.535262)">
    <path
       d="m 82.488619,195.20724 c 0,-3.83505 5.809897,-3.83505 5.809897,0 v 7.36 h 31.299504 v -7.36 c 0,-3.83505 5.80989,-3.83505 5.80989,0 v 7.36 h 7.36001 v -14.37146 c 0,-6.77862 -5.57812,-12.35675 -12.35675,-12.35675 H 87.524169 c -6.778625,0 -12.356747,5.57813 -12.356747,12.35675 v 14.37146 h 7.32155 z M 103.9488,130.16913 c 10.61367,0 19.21263,8.59896 19.21263,19.21263 0,10.61367 -8.59896,19.25249 -19.21263,19.25249 -10.613676,0 -19.212634,-8.59895 -19.212634,-19.25249 0,-10.57381 8.598958,-19.21263 19.212634,-19.21263 z m 9.49042,9.76207 c -8.44479,-8.40599 -22.931963,-2.44052 -22.931963,9.49042 0,11.93095 14.487173,17.93523 22.931963,9.49043 5.22958,-5.26838 5.22958,-13.75128 0,-18.98121 z m -25.915404,30.09758 h 32.887004 c 9.99349,0 18.16664,8.17316 18.16664,18.16665 v 14.37146 h 10.92376 c 1.58888,0 2.90492,1.31741 2.90492,2.90491 v 20.21981 c 0,1.58888 -1.31742,2.90492 -2.90492,2.90492 H 58.47045 c -1.62747,0 -2.904913,-1.31742 -2.904913,-2.90492 V 205.4718 c 0,-1.58887 1.317413,-2.90491 2.904913,-2.90491 h 10.884958 v -14.37146 c -0.03721,-9.99349 8.135761,-18.16665 18.168055,-18.16665 z m 59.033834,38.38928 H 61.337122 v 14.41027 H 146.55765 Z M 58.740678,160.88831 c -1.510313,0.58152 -3.176376,-0.15434 -3.757789,-1.66606 -0.581519,-1.47176 0.15434,-3.17638 1.666063,-3.75779 l 17.470614,-6.81708 c 1.471753,-0.58152 3.176376,0.15434 3.757789,1.66607 0.581519,1.47175 -0.154341,3.17637 -1.666064,3.75778 z m 92.501862,-5.42254 c 1.47175,0.58151 2.20761,2.2462 1.66606,3.75778 -0.58152,1.51032 -2.24621,2.24621 -3.75779,1.66607 l -17.46955,-6.81849 c -1.47176,-0.58152 -2.20762,-2.24621 -1.66607,-3.75779 0.58152,-1.51031 2.24621,-2.24621 3.75779,-1.66606 z m -50.20028,-49.85456 c 0,-3.83505 5.8099,-3.83505 5.8099,0 v 16.81198 c 0,3.83505 -5.8099,3.83505 -5.8099,0 z m 65.15453,40.52006 h 24.94668 c 1.58887,0 2.90491,1.31741 2.90491,2.90491 v 23.31931 c 0,1.58888 -1.31741,2.90492 -2.90491,2.90492 h -24.94668 c -1.58888,0 -2.90492,-1.31742 -2.90492,-2.90492 v -23.31931 c 0,-1.58888 1.31742,-2.90491 2.90492,-2.90491 z m 22.04155,5.84835 h -19.13537 v 17.47061 h 19.13537 z m -153.010301,-6.31402 7.824611,13.59711 7.941733,13.75128 c 1.123104,1.93615 -0.31006,4.33811 -2.517669,4.33811 H 16.712957 c -2.169019,0 -3.757789,-2.36333 -2.401923,-4.53249 l 15.765991,-27.30853 c 1.200256,-2.01468 4.143727,-1.89893 5.151261,0.15434 z m 2.827725,16.50188 -5.422547,-9.37471 -10.846505,18.78683 h 21.691599 z m 65.891836,-94.322188 -2.55627,7.863064 c -0.4258,1.27882 -1.627466,2.091866 -2.90491,2.014679 h -8.134702 l 6.701366,4.84258 c 1.08451,0.774453 1.471754,2.169019 1.007357,3.370686 l -2.556263,7.747353 6.701362,-4.881034 c 1.04592,-0.774453 2.44052,-0.735859 3.44784,0.03858 l 6.62411,4.84258 -2.55626,-7.863064 c -0.42581,-1.200255 0.0772,-2.517669 1.04591,-3.253563 l 6.73735,-4.882445 h -8.28886 c -1.27882,0 -2.36333,-0.85164 -2.75058,-2.014678 z m -7.398812,4.105275 4.648202,-14.410266 c 0.89157,-2.673385 4.6482,-2.673385 5.53967,0 l 4.6482,14.410266 14.91297,-0.03859 c 3.09922,-0.115753 4.14514,3.640667 1.89756,5.229578 l -12.24104,8.870597 4.72546,14.371468 c 0.85164,2.63341 -2.20761,4.88103 -4.45523,3.25356 l -12.27702,-8.947506 -12.046654,8.793346 c -2.440517,1.89755 -5.501217,-0.4644 -4.6482,-3.09923 L 91.939359,86.012332 79.698323,77.141735 c -2.246207,-1.666064 -1.123103,-5.229578 1.704622,-5.229578 z"
       id="path64"
       style="stroke-width:0.352778" />
  </g>
</svg>
