<?xml version="1.0" encoding="UTF-8" standalone="no"?>
<svg
   xmlns:dc="http://purl.org/dc/elements/1.1/"
   xmlns:cc="http://creativecommons.org/ns#"
   xmlns:rdf="http://www.w3.org/1999/02/22-rdf-syntax-ns#"
   xmlns:svg="http://www.w3.org/2000/svg"
   xmlns="http://www.w3.org/2000/svg"
   xmlns:sodipodi="http://sodipodi.sourceforge.net/DTD/sodipodi-0.dtd"
   xmlns:inkscape="http://www.inkscape.org/namespaces/inkscape"
   width="187.17999mm"
   height="171.34698mm"
   viewBox="0 0 187.17999 171.34698"
   version="1.1"
   id="svg165"
   inkscape:version="1.0.2 (e86c870879, 2021-01-15)"
   sodipodi:docname="knowledge.svg">
  <defs
     id="defs159" />
  <sodipodi:namedview
     id="base"
     pagecolor="#ffffff"
     bordercolor="#666666"
     borderopacity="1.0"
     inkscape:pageopacity="0.0"
     inkscape:pageshadow="2"
     inkscape:zoom="0.35"
     inkscape:cx="366.13671"
     inkscape:cy="364.39684"
     inkscape:document-units="mm"
     inkscape:current-layer="layer1"
     inkscape:document-rotation="0"
     showgrid="false"
     inkscape:window-width="1412"
     inkscape:window-height="908"
     inkscape:window-x="45"
     inkscape:window-y="45"
     inkscape:window-maximized="0" />
  <metadata
     id="metadata162">
    <rdf:RDF>
      <cc:Work
         rdf:about="">
        <dc:format>image/svg+xml</dc:format>
        <dc:type
           rdf:resource="http://purl.org/dc/dcmitype/StillImage" />
        <dc:title></dc:title>
      </cc:Work>
    </rdf:RDF>
  </metadata>
  <g
     inkscape:label="Layer 1"
     inkscape:groupmode="layer"
     id="layer1"
     transform="translate(-8.959662,-51.753335)">
    <path
       d="m 193.57706,201.03936 -74.10802,11.41554 v 0.61736 c 0,5.53014 -4.49791,10.02806 -10.02806,10.02806 H 95.813528 c -5.530144,0 -10.028061,-4.49792 -10.028061,-10.02806 V 212.4549 L 11.522219,201.03936 c -1.6508937,-0.25356 -2.7795007,-1.79698 -2.5273347,-3.44646 0.253559,-1.6509 1.7969787,-2.7795 3.4464617,-2.52734 l 76.824415,11.80994 c 1.473129,0.226 2.561766,1.49656 2.561766,2.9862 v 3.20809 c 0,2.19798 1.788689,3.98392 3.98392,3.98392 H 109.4389 c 2.19798,0 3.98392,-1.78869 3.98392,-3.98392 v -3.20809 c 0,-1.49243 1.08864,-2.76021 2.56177,-2.9862 l 76.67271,-11.80994 c 1.64814,-0.25356 3.19155,0.87644 3.44646,2.52734 0.25494,1.65089 -0.87506,3.1943 -2.52595,3.44646 z M 11.134516,155.97906 c -0.314195,-0.92192 -0.166744,-1.94303 0.401002,-2.73541 0.567761,-0.79375 1.484137,-1.26365 2.459814,-1.26365 16.911461,0 34.255427,3.79519 48.835027,10.68247 17.197916,8.12623 30.537149,20.21028 39.722781,35.96922 9.18598,-15.7607 22.52556,-27.84475 39.72277,-35.96922 14.5796,-6.89011 31.92215,-10.68247 48.83503,-10.68247 0.97564,0 1.89067,0.47128 2.45981,1.26365 0.56776,0.79375 0.71656,1.81349 0.401,2.73541 -7.87259,23.00922 -11.80994,34.50872 -11.80994,34.50872 -0.41755,1.2223 -1.5682,2.04364 -2.85806,2.04364 -30.96437,0 -57.60861,6.69466 -75.01819,18.8475 -0.51816,0.36241 -1.12586,0.54296 -1.7308,0.54296 -0.60494,0 -1.20992,-0.18052 -1.7308,-0.54296 -17.411347,-12.15566 -44.054888,-18.8475 -75.018192,-18.8475 -1.292614,0 -2.440517,-0.8213 -2.858065,-2.04364 -0.0055,-0.003 -3.942644,-11.50232 -11.815233,-34.50872 z m 16.83138,30.51668 c 18.709569,0.18466 35.898666,2.78638 50.549527,7.53252 C 61.85902,183.5123 41.674841,175.12854 23.672591,173.94321 c 2.083576,6.09247 3.51536,10.27747 4.294011,12.55253 z M 181.64295,173.31879 c -18.07845,1.23059 -38.57273,9.96033 -55.46725,20.8414 14.73658,-4.83129 32.07385,-7.47853 50.95875,-7.66586 0.80616,-2.34957 2.31097,-6.74546 4.51026,-13.17554 z m -71.99489,25.28429 c 8.86778,-7.12435 19.32693,-13.79009 29.98893,-19.01825 11.10686,-5.44724 27.58158,-11.88967 44.11133,-12.42166 0.93984,-2.75195 1.97337,-5.7658 3.09644,-9.04804 -16.87689,0.71656 -55.29438,6.29073 -77.19836,40.4883 z M 18.250396,158.11477 c 1.209922,3.53589 2.313729,6.76064 3.311419,9.67811 16.581967,0.51675 32.965319,6.79238 43.984333,12.09781 10.824633,5.21299 21.115513,11.6787 29.907441,18.7205 C 73.552439,164.40551 35.12859,158.83197 18.248174,158.11583 Z m 55.125055,-34.75954 c -2.882865,-4.92654 -5.605992,-9.58145 -5.605992,-18.59668 0,-19.176649 15.602303,-34.780363 34.780361,-34.780363 19.17665,0 34.78036,15.602302 34.78036,34.780363 0,9.0177 -2.72302,13.67014 -5.60599,18.59668 -3.14883,5.38127 -6.40362,10.94845 -7.18785,24.08519 v 5.06695 c 0,3.44234 -2.13871,6.39128 -5.15514,7.59566 v 2.72715 c 0,3.4961 -2.20349,6.48652 -5.29449,7.65916 v 2.66237 c 0,4.5145 -3.67383,8.18833 -8.18832,8.18833 h -6.695726 c -4.514497,0 -8.188325,-3.67383 -8.188325,-8.18833 v -2.66513 c -3.085429,-1.1727 -5.284611,-4.16172 -5.284611,-7.65774 v -2.7244 c -3.023411,-1.20442 -5.167489,-4.15466 -5.167489,-7.59707 v -5.06695 C 79.77812,134.30368 76.524698,128.73615 73.375803,123.35523 Z m 20.665016,-18.36244 c 0,-2.4033 -1.955447,-4.35857 -4.358569,-4.35857 -2.403123,0 -4.35857,1.95545 -4.35857,4.35857 0,2.40312 1.955447,4.35857 4.35857,4.35857 h 4.358569 z m 10.974563,10.40271 h -4.93077 v 28.92355 h 4.93077 z m -18.409355,34.96769 v 2.14422 c 0,1.17683 0.96326,2.13458 2.144219,2.13458 h 27.609096 c 1.15616,0 2.13459,-0.97701 2.13459,-2.13458 v -2.14422 z m 26.731035,12.46575 v -2.14422 H 91.771753 v 2.14422 c 0,1.16308 0.977018,2.14422 2.134588,2.14422 h 17.286109 c 1.16308,0 2.14422,-0.98114 2.14422,-2.14422 z m -5.29449,10.32299 v -2.13459 H 97.057775 v 2.13459 c 0,1.16307 0.981146,2.14421 2.144219,2.14421 h 6.695726 c 1.16169,0 2.14421,-0.98255 2.14421,-2.14421 z M 73.813248,104.7589 c 0,7.37941 2.109787,10.98303 4.77908,15.54551 2.971059,5.07929 6.620228,11.3164 7.795684,24.01499 h 7.653513 l -0.0014,-28.92354 h -4.358569 c -5.735461,0 -10.402711,-4.66725 -10.402711,-10.40271 0,-5.735466 4.66725,-10.402716 10.402711,-10.402716 5.735461,0 10.402714,4.66725 10.402714,10.402716 v 4.35856 h 4.93077 v -4.35856 c 0,-5.735466 4.66725,-10.402716 10.40271,-10.402716 5.73546,0 10.40271,4.66725 10.40271,10.402716 0,5.73546 -4.66725,10.40271 -10.40271,10.40271 h -4.35857 v 28.92354 h 7.65352 c 1.17545,-12.69859 4.826,-18.93711 7.79568,-24.01499 2.66926,-4.56283 4.77908,-8.16752 4.77908,-15.54551 0,-15.846072 -12.89015,-28.736219 -28.73622,-28.736219 -15.847481,0 -28.737628,12.890147 -28.737628,28.736219 z m 41.603082,4.59317 c 2.4033,0 4.35857,-1.95545 4.35857,-4.35857 0,-2.40312 -1.95545,-4.35857 -4.35857,-4.35857 -2.40312,0 -4.35857,1.95545 -4.35857,4.35857 v 4.35857 z M 102.54806,65.283068 c 1.66881,0 3.02066,-1.351845 3.02066,-3.02066 v -7.488414 c 0,-1.668815 -1.35185,-3.020659 -3.02066,-3.020659 -1.66882,0 -3.020664,1.351844 -3.020664,3.020659 v 7.488414 c 0,1.667439 1.351844,3.02066 3.020664,3.02066 z m -26.579693,4.904316 c 0.559471,0.971515 1.576494,1.514475 2.622409,1.514475 0.512622,0 1.030782,-0.129536 1.506185,-0.403754 1.446953,-0.83372 1.943029,-2.681675 1.110685,-4.125736 l -3.733094,-6.482292 c -0.83372,-1.446953 -2.681675,-1.943029 -4.125736,-1.110685 -1.446953,0.83372 -1.943029,2.681675 -1.110686,4.125736 z m -22.901627,14.909094 6.482292,3.733095 c 0.475438,0.274228 0.993563,0.403754 1.506184,0.403754 1.045916,0 2.061563,-0.54296 2.622409,-1.514475 0.83372,-1.446953 0.334864,-3.294874 -1.110685,-4.125736 l -6.482292,-3.733094 c -1.446953,-0.83372 -3.294874,-0.334864 -4.125736,1.110685 -0.836471,1.444202 -0.338998,3.292122 1.107934,4.125736 z m 71.93139,-13.798197 c 0.47544,0.274229 0.99356,0.403755 1.50618,0.403755 1.04592,0 2.06157,-0.542961 2.62241,-1.514475 l 3.7331,-6.482292 c 0.83372,-1.446953 0.33486,-3.294874 -1.11069,-4.125736 -1.44695,-0.83372 -3.29487,-0.334864 -4.12574,1.110686 l -3.73309,6.482291 c -0.83372,1.444202 -0.33624,3.292122 1.10793,4.125736 z m 19.04435,17.935222 c 0.51262,0 1.03078,-0.129536 1.50618,-0.403754 l 6.4823,-3.733094 c 1.44695,-0.83372 1.94303,-2.681676 1.11068,-4.125736 -0.83372,-1.446954 -2.68167,-1.94303 -4.12573,-1.110686 l -6.4823,3.733095 c -1.44695,0.833719 -1.94303,2.681675 -1.11068,4.125736 0.55672,0.970138 1.5737,1.514475 2.61966,1.514475 z"
       id="path64"
       style="stroke-width:0.352778" />
  </g>
</svg>
