<svg xmlns="http://www.w3.org/2000/svg" width="707.5" height="647.6" viewBox="0 0 187.2 171.3"><path d="m193.6 201-74.1 11.5v.6a10 10 0 0 1-10 10H95.7a10 10 0 0 1-10-10v-.6L11.5 201a3 3 0 0 1 1-6l76.7 12a3 3 0 0 1 2.5 3v3.2a4 4 0 0 0 4 4h13.6a4 4 0 0 0 4-4V210a3 3 0 0 1 2.6-3l76.7-11.8a3 3 0 0 1 .9 6zM11 156a3 3 0 0 1 2.9-4c17 0 34.3 3.8 48.8 10.7a88.8 88.8 0 0 1 39.8 36 88.8 88.8 0 0 1 39.7-36c14.6-7 31.9-10.7 48.8-10.7a3 3 0 0 1 2.9 4l-11.8 34.5a3 3 0 0 1-2.9 2c-31 0-57.6 6.7-75 18.9a3 3 0 0 1-3.5 0c-17.4-12.2-44-18.9-75-18.9a3 3 0 0 1-2.9-2L11.1 156zm17 30.5a171 171 0 0 1 50.5 7.5 125 125 0 0 0-54.8-20l4.3 12.5zm153.6-13.2c-18 1.2-38.5 10-55.4 20.9 14.7-4.9 32-7.5 51-7.7l4.4-13.2zm-72 25.3c9-7.1 19.4-13.8 30-19a113.6 113.6 0 0 1 44.1-12.4l3.1-9c-16.8.6-55.2 6.2-77.2 40.4zm-91.3-40.5 3.3 9.7c16.5.5 33 6.8 44 12a158.3 158.3 0 0 1 29.9 18.8c-22-34.2-60.4-39.8-77.3-40.5Zm55-34.7c-2.8-5-5.5-9.6-5.5-18.6a34.8 34.8 0 0 1 69.5 0c0 9-2.7 13.6-5.6 18.6a46 46 0 0 0-7.2 24v5.1c0 3.4-2.1 6.4-5.1 7.6v2.7c0 3.5-2.2 6.5-5.3 7.7v2.7c0 4.5-3.7 8.1-8.2 8.1h-6.7a8.2 8.2 0 0 1-8.2-8.1v-2.7a8.2 8.2 0 0 1-5.3-7.7v-2.7a8.2 8.2 0 0 1-5.1-7.6v-5a46 46 0 0 0-7.2-24.1ZM94 105a4.4 4.4 0 1 0-4.3 4.4H94zm11 10.4h-5v29h5zm-18.4 35v2.1c0 1.2 1 2.1 2.1 2.1h27.7c1.1 0 2-1 2-2v-2.2zm26.7 12.4v-2.1H91.8v2.1c0 1.2 1 2.2 2.1 2.2h17.3c1.2 0 2.1-1 2.1-2.2zm-5.3 10.4V171H97v2.2c0 1.1 1 2.1 2.2 2.1h6.7c1.2 0 2.1-1 2.1-2.1zm-34.2-68.4c0 7.3 2.1 11 4.8 15.5 3 5 6.6 11.3 7.8 24H94v-28.9h-4.3A10.4 10.4 0 1 1 100 105v4.4h5V105a10.4 10.4 0 1 1 10.3 10.4H111v29h7.6c1.2-12.8 4.8-19 7.8-24.1 2.7-4.6 4.8-8.2 4.8-15.5a28.8 28.8 0 0 0-57.5 0zm41.6 4.6a4.4 4.4 0 1 0-4.3-4.4v4.4zm-12.9-44.1a3 3 0 0 0 3-3v-7.5a3 3 0 1 0-6 0v7.5a3 3 0 0 0 3 3zM76 70.2a3 3 0 1 0 5.2-3l-3.7-6.5a3 3 0 0 0-5.3 3zM53 85l6.5 3.7a3 3 0 0 0 4.2-1 3 3 0 0 0-1.1-4.2L56 79.9a3 3 0 1 0-3 5.2zm72-13.8a3 3 0 0 0 4.1-1.1l3.8-6.5a3 3 0 1 0-5.3-3l-3.7 6.5a3 3 0 0 0 1.1 4.1zm19 18c.6 0 1-.2 1.5-.5L152 85a3 3 0 0 0-3-5.2l-6.5 3.7a3 3 0 0 0 1.5 5.6z" style="stroke-width:.352778" transform="translate(-9 -51.8)"/></svg>