<svg xmlns="http://www.w3.org/2000/svg" width="746.7" height="653.3" viewBox="0 0 197.6 172.9"><path d="M193 89.5A15.4 15.4 0 0 0 177.8 77h-77.1a9.3 9.3 0 0 1-9.3-9.2V55.3A15.4 15.4 0 0 0 76 40H23.5A15.4 15.4 0 0 0 8 55.3v142a15.4 15.4 0 0 0 15.4 15.5h166.7a15.4 15.4 0 0 0 15.4-15.5v-92.6A15.4 15.4 0 0 0 193 89.5zM14.2 197.3v-142a9.3 9.3 0 0 1 9.3-9.2H76a9.3 9.3 0 0 1 9.2 9.2v12.4A15.4 15.4 0 0 0 100.7 83h77.1a9.3 9.3 0 0 1 8.8 6.2H48.2a15.4 15.4 0 0 0-15.4 15.4v92.6a9.3 9.3 0 0 1-18.6 0zm185.2 0a9.3 9.3 0 0 1-9.2 9.3H35.8c2-2.7 3.1-6 3.1-9.3v-92.6a9.3 9.3 0 0 1 9.3-9.2h142a9.3 9.3 0 0 1 9.2 9.2z" style="stroke-width:.352778" transform="translate(-8 -39.9)"/><path d="M144.9 156.2a33.7 33.7 0 0 1-7.7 6.6l-6.8-17.4-.3-.6a15.4 15.4 0 0 0-7.8-25.9v-9.6a3 3 0 0 0-6.2 0v9.6a15.4 15.4 0 0 0-7.9 26l-.2.4L91.6 187a3 3 0 0 0 1.8 4l1 .2a3 3 0 0 0 3-2l7-17.8a40 40 0 0 0 29.6 0l7 17.9a3 3 0 1 0 5.7-2.3l-7.2-18.3c3.8-2.2 7.2-5 10-8.3a3 3 0 1 0-4.6-4zm-25.7-31.4a9.3 9.3 0 1 1 0 18.5 9.3 9.3 0 0 1 0-18.5zm0 43.2a34 34 0 0 1-12.5-2.4l6.7-17.3c3.7 1.5 7.9 1.5 11.5 0l6.8 17.3c-4 1.6-8.2 2.4-12.5 2.4z" style="stroke-width:.352778" transform="translate(-8 -39.9)"/></svg>