<?xml version="1.0" encoding="UTF-8" standalone="no"?>
<svg
   xmlns:dc="http://purl.org/dc/elements/1.1/"
   xmlns:cc="http://creativecommons.org/ns#"
   xmlns:rdf="http://www.w3.org/1999/02/22-rdf-syntax-ns#"
   xmlns:svg="http://www.w3.org/2000/svg"
   xmlns="http://www.w3.org/2000/svg"
   xmlns:sodipodi="http://sodipodi.sourceforge.net/DTD/sodipodi-0.dtd"
   xmlns:inkscape="http://www.inkscape.org/namespaces/inkscape"
   width="197.55556mm"
   height="172.86111mm"
   viewBox="0 0 197.55556 172.86111"
   version="1.1"
   id="svg608"
   inkscape:version="1.0.2 (e86c870879, 2021-01-15)"
   sodipodi:docname="projects.svg">
  <defs
     id="defs602" />
  <sodipodi:namedview
     id="base"
     pagecolor="#ffffff"
     bordercolor="#666666"
     borderopacity="1.0"
     inkscape:pageopacity="0.0"
     inkscape:pageshadow="2"
     inkscape:zoom="0.35"
     inkscape:cx="369.53868"
     inkscape:cy="409.23362"
     inkscape:document-units="mm"
     inkscape:current-layer="layer1"
     inkscape:document-rotation="0"
     showgrid="false"
     inkscape:window-width="1412"
     inkscape:window-height="908"
     inkscape:window-x="45"
     inkscape:window-y="45"
     inkscape:window-maximized="0" />
  <metadata
     id="metadata605">
    <rdf:RDF>
      <cc:Work
         rdf:about="">
        <dc:format>image/svg+xml</dc:format>
        <dc:type
           rdf:resource="http://purl.org/dc/dcmitype/StillImage" />
        <dc:title></dc:title>
      </cc:Work>
    </rdf:RDF>
  </metadata>
  <g
     inkscape:label="Layer 1"
     inkscape:groupmode="layer"
     id="layer1"
     transform="translate(-8.0595567,-39.890271)">
    <path
       d="m 193.00595,89.540743 c -0.66008,-3.541536 -2.53834,-6.74123 -5.30824,-9.044163 -2.77125,-2.304063 -6.2604,-3.56482 -9.86402,-3.56482 h -77.17015 c -2.455646,0 -4.812236,-0.975642 -6.548256,-2.711979 -1.736019,-1.736337 -2.711979,-4.092928 -2.711979,-6.548261 V 55.324298 c 0,-4.092927 -1.626094,-8.018638 -4.519789,-10.914238 -2.895247,-2.893872 -6.821311,-4.519789 -10.914238,-4.519789 H 23.493584 c -4.092927,0 -8.018638,1.626094 -10.914238,4.519789 -2.8938718,2.895247 -4.5197893,6.821311 -4.5197893,10.914238 V 197.31735 c 0,4.09293 1.6260939,8.01864 4.5197893,10.91424 2.895247,2.89387 6.821311,4.51979 10.914238,4.51979 H 190.18108 c 4.09293,0 8.01864,-1.6261 10.91424,-4.51979 2.89387,-2.89525 4.51979,-6.82131 4.51979,-10.91424 v -92.60416 c 0,-3.60363 -1.2609,-7.092601 -3.56482,-9.864023 -2.30268,-2.76987 -5.50262,-4.6482 -9.04416,-5.308247 z M 14.232286,197.31788 V 55.324827 c 0,-2.45565 0.975642,-4.812241 2.711979,-6.548261 1.736337,-1.736019 4.092928,-2.711979 6.548261,-2.711979 h 52.475693 c 2.455651,0 4.812242,0.975643 6.548261,2.711979 1.73602,1.736337 2.711979,4.092928 2.711979,6.548261 v 12.347222 c 0,4.092928 1.626094,8.018639 4.519789,10.914239 2.895247,2.893871 6.821311,4.519789 10.914242,4.519789 h 77.17014 c 1.91272,0.0028 3.7786,0.596688 5.34,1.70187 1.56132,1.106558 2.74228,2.667882 3.38031,4.471811 H 48.186441 c -4.092928,0 -8.018639,1.626094 -10.914239,4.519789 -2.893871,2.895247 -4.519789,6.821313 -4.519789,10.914243 v 92.60416 c 0,3.30866 -1.765264,6.36517 -4.630208,8.02005 -2.864944,1.65364 -6.395508,1.65364 -9.260416,0 -2.864944,-1.65502 -4.630209,-4.71135 -4.630209,-8.02005 z m 185.208334,0 c 0,2.45565 -0.97564,4.81224 -2.71198,6.54826 -1.73634,1.73602 -4.09293,2.71198 -6.54826,2.71198 H 35.840101 c 2.009175,-2.66788 3.093684,-5.91997 3.086805,-9.26042 v -92.60416 c 0,-2.45565 0.975642,-4.812243 2.711979,-6.548262 1.736337,-1.73602 4.092928,-2.711979 6.548261,-2.711979 H 190.1802 c 2.45565,0 4.81224,0.975642 6.54826,2.711979 1.73602,1.736337 2.71198,4.092932 2.71198,6.548262 z"
       id="path474"
       style="stroke-width:0.352778" />
    <path
       d="m 144.8659,156.24749 c -2.20211,2.54384 -4.77203,4.74451 -7.62459,6.5278 l -6.83789,-17.39371 c -0.0717,-0.18741 -0.15985,-0.36795 -0.26183,-0.54017 2.60311,-2.64859 4.16313,-6.14892 4.39456,-9.85591 0.23288,-3.70558 -0.88057,-7.37235 -3.13366,-10.32439 -2.25308,-2.95314 -5.49557,-4.99392 -9.13236,-5.74922 v -9.5691 c 0,-1.70462 -1.38218,-3.0868 -3.0868,-3.0868 -1.70462,0 -3.08681,1.38218 -3.08681,3.0868 v 9.5691 c -3.63678,0.75515 -6.87916,2.79604 -9.13236,5.74922 -2.25309,2.95176 -3.36656,6.61881 -3.13366,10.32439 0.23152,3.70699 1.79145,7.20725 4.39456,9.85591 -0.0978,0.15158 -0.18052,0.31143 -0.24667,0.47819 l -16.36007,41.56427 c -0.620113,1.58475 0.15985,3.37344 1.743216,3.99768 0.354153,0.16123 0.737235,0.25081 1.12723,0.26183 1.269189,-0.001 2.407426,-0.77858 2.870447,-1.95957 l 7.022397,-17.84139 v -0.001 c 4.71029,1.87276 9.73314,2.83185 14.8015,2.82498 5.06695,-0.004 10.08874,-0.96189 14.8015,-2.82498 l 7.02239,17.84138 v 0.001 c 0.46302,1.18099 1.60129,1.95819 2.87045,1.95957 0.38586,0.003 0.76895,-0.0703 1.12723,-0.21635 1.58337,-0.62287 2.36333,-2.41155 1.74321,-3.99768 l -7.20725,-18.31975 c 3.7592,-2.21728 7.13282,-5.03132 9.98538,-8.33437 0.62837,-0.59807 0.97702,-1.43454 0.95772,-2.30131 -0.0179,-0.86815 -0.401,-1.68812 -1.05558,-2.25997 -0.65321,-0.57051 -1.51723,-0.83922 -2.37988,-0.7414 -0.86264,0.0978 -1.64401,0.55535 -2.15251,1.25953 z m -25.68258,-31.47025 c 2.45565,0 4.81225,0.97564 6.54826,2.71198 1.73602,1.73634 2.71198,4.09293 2.71198,6.54826 0,2.45534 -0.97564,4.81224 -2.71198,6.54826 -1.73633,1.73602 -4.09292,2.71198 -6.54826,2.71198 -2.45533,0 -4.81224,-0.97564 -6.54826,-2.71198 -1.73602,-1.73633 -2.71198,-4.09292 -2.71198,-6.54826 0,-2.45533 0.97565,-4.81224 2.71198,-6.54826 1.73634,-1.73602 4.09293,-2.71198 6.54826,-2.71198 z m 0,43.21528 c -4.29119,10e-4 -8.54392,-0.8103 -12.53172,-2.39226 l 6.79097,-17.25577 c 3.68476,1.50206 7.81226,1.50206 11.49844,0 l 6.7758,17.23919 -0.001,0.001 c -3.98674,1.59163 -8.23912,2.4088 -12.53172,2.40743 z"
       id="path476"
       style="stroke-width:0.352778" />
  </g>
</svg>
