<svg xmlns="http://www.w3.org/2000/svg" width="682.7" height="682.7" version="1.0" viewBox="0 0 512 512"><path d="M68 24.9 6.7 40.3c-1.5.4-3.6 1.6-4.7 2.7-1.9 1.9-2 3.6-2 55 0 30.5.4 57.2 1.1 62.8a170.3 170.3 0 0 0 53.5 106 211 211 0 0 0 46.6 31.3l20.8 11.4v19c0 21.5 1 27.6 6.3 36.4 1.8 2.9 5.1 6.9 7.4 8.9l4.1 3.5-4.7 4.6a39.8 39.8 0 0 0-11.5 19.6c-2.3 8.5-2.3 60.4-.1 69a41.4 41.4 0 0 0 23.3 27.8l6.7 3.2 161.5.3c178.1.3 166.9.6 177.2-5.9a42 42 0 0 0 18.3-25.6c2.2-8.4 2.2-60.4-.1-68.8A39.7 39.7 0 0 0 499 382l-4.7-4.6 4.1-3.6A43.4 43.4 0 0 0 511 333c-1.5-2.8-6.1-4-9.7-2.5-3.7 1.6-4.3 3.1-4.3 10.3 0 12.2-4.9 20.8-14.8 25.9l-6.4 3.3H158.2l-6.4-3.3a27.1 27.1 0 0 1-13.8-16.5c-.5-2-1-11.8-1-21.7v-18l20.1-10.9a247 247 0 0 0 41.4-25.9l7-5.7h134.6c147.6 0 139.4-.3 147 5.9 1.9 1.6 4.8 5.3 6.4 8.2a26 26 0 0 1 3.3 13.9c.5 9.9 2.3 13 7.7 13 5.5 0 7.5-3.3 7.5-12.2 0-13.1-5.8-26.6-14.4-33.4l-3.4-2.7 4.7-4.6a39.8 39.8 0 0 0 11.5-19.6c2.1-8 2.3-61.3.2-69a43.7 43.7 0 0 0-22.5-27.8l-6.6-3.2-110.2-.3L261 136V90.9c0-26.9-.4-45.8-1-46.8a8 8 0 0 0-3.7-2.9c-5.7-2.3-123.4-31.2-126.5-31.1-1.8 0-29.6 6.7-61.8 14.8zm120.5 14.4 57 14.3v54c0 52.4-.1 54.2-2.3 64.4a159.5 159.5 0 0 1-35.6 72.2c-13.4 15.7-26.9 25.6-57.5 42.2l-19.5 10.5-11.5-6.1c-35.3-18.8-43.9-24.7-59.2-39.9a154.4 154.4 0 0 1-42.5-81.4c-1.7-9-1.9-15.5-1.9-62.9v-53L72 39.4c31.1-7.8 57.2-14.2 58-14.3.8 0 27.1 6.4 58.5 14.2zm293.1 114.1c2.7 1.3 6.7 4.3 8.7 6.6 6.5 7.6 6.8 10 6.5 43.7-.3 33.9-.4 33.9-9.1 42-8.4 7.8.3 7.3-140.9 7.3-69.2 0-125.8-.2-125.8-.5s2.7-4.1 6-8.6c3.3-4.4 7.4-10.5 9.2-13.5l3.3-5.4h40c36.7 0 40.3-.2 44-1.9a23.3 23.3 0 0 0 13.8-21.6c0-9.1-4.4-16.3-12.8-20.8-3.8-2.1-5.4-2.2-35.6-2.5l-31.5-.3 1.3-8.7 1.8-13.5.6-4.7h215.4l5.1 2.4zm-161.4 42.3c3.3 3.3 3 8.9-.6 11.9l-2.7 2.4H247l1.9-4.8 3.1-8.5 1.2-3.8 32.4.3c31.9.3 32.4.3 34.6 2.5zm161.4 192a31 31 0 0 1 12.7 12.7c2.1 3.9 2.2 5.4 2.5 33.4.4 33.1-.2 36.8-6.3 43.9a30.6 30.6 0 0 1-8.7 6.7l-5.2 2.6H157.4l-5.2-2.6a30.6 30.6 0 0 1-8.7-6.7c-6.1-7.1-6.7-10.8-6.3-43.9.3-27.8.4-29.5 2.5-33.4a30.5 30.5 0 0 1 17.3-14.5c1.4-.4 74.1-.7 161.5-.6l159 .2 4.1 2.2z"/><path d="M86 61.7c-31 7.8-42.1 11-43.7 12.5C40 76.3 40 76.7 40 102c0 24.4.1 25.7 2 27.8 2.8 3 8.2 3 11 0 1.9-2 2-3.4 2-23.5V85.1l3.8-1 37.7-9.5 34-8.5 34 8.5 37.8 9.5 3.7 1v31.7c0 34.4-.7 43.5-4.6 56.9-9 31.7-29.9 56.2-62.6 73.2l-8.5 4.5-11.4-6.3a117.2 117.2 0 0 1-62-82 22 22 0 0 0-3.1-8.3c-2.8-2.8-8.5-2.1-11.1 1.3-1.9 2.6-1.9 2.9-.2 11a131 131 0 0 0 19.2 46.8c7.1 10.7 21.8 26 32 33.3 10.6 7.6 33.3 19.8 36.8 19.8 3.2 0 20-8.7 32.5-16.9a152.5 152.5 0 0 0 33.3-31.9c10.6-14.7 18-31.4 22.3-50.2 1.4-6.2 1.8-14.6 2.1-49.1l.5-41.6-2.4-2.6c-2-2.3-7-3.8-44.5-13.2a835.8 835.8 0 0 0-44.5-10.4c-1.3 0-21 4.8-43.8 10.6z"/><path d="M165.3 92.1c-10.5 2-13.9 5.9-28.3 32.8-10.2 19-11.6 21.1-12.7 19.5l-8-10.9c-8.5-11.2-14-14.5-23.9-14.5-7.7 0-11.8 1.5-17.2 6.4a24.3 24.3 0 0 0-8 20.1c.3 3.4 1.3 7.5 2.2 9.3a1024 1024 0 0 0 43.2 57.4c7.2 6.7 18.3 8 27.8 3.4 3.1-1.5 6.7-4.2 8-5.9 4.5-6.1 45-82.2 46.3-87.2 4.6-17.2-11.4-33.8-29.4-30.4zm12.1 17.8c5.3 5.6 4.9 6.6-17.9 49.1a624.4 624.4 0 0 1-23.5 41.4 8.2 8.2 0 0 1-6.9 2.9c-2.2 0-4.8-.7-5.7-1.4-2-1.6-36.4-47.2-39.4-52.1-5.1-8.5.5-16.9 10.5-15.8 3.4.4 5.3 2.4 14.7 15.1 11.9 16.3 13.4 17.9 17.3 17.9a9 9 0 0 0 4.7-1.3c.9-.6 8-13.1 15.8-27.7a324.4 324.4 0 0 1 16.6-28.8 10.2 10.2 0 0 1 13.8.7zm208.6 53a26.3 26.3 0 0 0-17 16.4c-.8 2.9-1 11-.8 24.8l.3 20.6 3 4.9c1.9 3 4.9 6 7.9 7.9 4.3 2.6 5.9 3 12.1 3 6.2 0 7.8-.4 12.1-3 3-1.9 6-4.9 7.9-7.9l3-4.9.3-20.6c.2-13.8 0-21.9-.8-24.8-1.5-5.3-7-11.7-12.2-14.4a25.5 25.5 0 0 0-15.8-2zm11.8 17.7c2.1 2.4 2.2 3.3 2.2 20.5 0 18.2-.5 21-3.9 23.6-.9.7-2.9 1.2-4.6 1.2a9 9 0 0 1-4.6-1.2c-3.4-2.6-3.9-5.4-3.9-23.4 0-14.8.3-18.3 1.6-20.1 3.3-4.8 9.2-5 13.2-.6zm45.7-17.7a24.6 24.6 0 0 0-16.1 13.1c-1.7 3.1-1.9 6-1.9 25.5 0 24.3.4 26.2 6.9 32.7a23.5 23.5 0 0 0 34.3-1.6c4.7-5.7 5.3-9.4 5.3-31.8 0-19.9-.1-20.5-2.5-25.5a23.1 23.1 0 0 0-26-12.4zm10.4 16.7 3.1 2.6v19.4c0 19.4 0 19.5-2.5 21.9-3.1 3.2-7.5 3.2-11.2.1l-2.8-2.4-.3-18.4c-.3-19.7.2-22.2 4.8-24.5 3.7-1.9 5.5-1.6 8.9 1.3zm-72.5 219.8a23.5 23.5 0 0 0-12 13.3c-1.7 4.9-1.9 40.8-.2 46.4a23.6 23.6 0 0 0 22.3 16.2c10 0 19.6-6.9 22.3-16.2 1.7-5.6 1.5-41.5-.2-46.4a23.8 23.8 0 0 0-22.1-15.7c-3.2 0-6.9.9-10.1 2.4zm14.1 13.2c3.7 1.5 4.5 5.6 4.5 24.3 0 17.5-.1 18.1-2.4 20.7a7.8 7.8 0 0 1-12.2 0c-2.3-2.6-2.4-3.2-2.4-20.7 0-22 .8-24.6 8.2-24.8 1.4-.1 3.4.2 4.3.5zm42.7-13a23 23 0 0 0-12.3 15.8c-.7 3.2-1 12.1-.7 24.1.3 17.2.6 19.4 2.5 23.1a23.5 23.5 0 0 0 42.4-1.1c1.6-3.5 1.9-6.7 1.9-24.4 0-23.9-.6-26.7-7-33.1a22.3 22.3 0 0 0-26.8-4.4zm16.3 14.9c2.5 2.4 2.5 2.6 2.5 21.2 0 15.7-.3 19.2-1.6 21.1-2.3 3.3-6.1 4.6-9.6 3.1-5.1-2.1-5.8-5-5.8-24.3 0-17.3 0-17.5 2.6-20.5 3.3-4 8.3-4.3 11.9-.6zm-275.3 1.1c-17.5 8.7-17 32.7.8 42 2.9 1.5 6.5 1.9 20.3 2.2 18.3.4 21.6-.2 23.6-4.4 1.5-3.5 1.4-4.8-.9-7.7-2-2.6-2.1-2.6-19.5-2.9-15.9-.3-17.6-.5-19.5-2.3-3.4-3.4-3.6-7.7-.5-11.3l2.7-3.2h131.5l2 2.2c3 3.3 3.6 6.3 1.9 9.6-2.6 5-4.1 5.2-39.6 5.2-32.6 0-32.9 0-35 2.2a7.5 7.5 0 0 0-.1 9.9l1.9 2.4 33.2.3c28.4.2 34 0 38.8-1.4a23 23 0 0 0 4-42.8l-5.2-2.6H184.4l-5.2 2.6zm202.8-134c-5 2.2-8.9 6.1-11.6 11.9-2.2 4.7-2.4 6.1-2.4 24.5 0 10.7.5 21.1 1 23.1 1.5 5.2 4.9 9.9 9.9 13.4 3.9 2.8 4.9 3 12.6 3 7.7 0 8.7-.2 12.6-3 5-3.5 8.4-8.2 9.9-13.4.5-2 1-12.4 1-23.1 0-18.4-.2-19.8-2.4-24.5a21.5 21.5 0 0 0-21.3-13.5c-3.2.1-7.4.8-9.3 1.6zm15.5 15.9c2.5 2.4 2.5 2.6 2.5 21.5s0 19.1-2.5 21.5a7.7 7.7 0 0 1-6 2.5c-2.5 0-4.4-.8-6-2.5-2.5-2.4-2.5-2.6-2.5-21.5s0-19.1 2.5-21.5a7.7 7.7 0 0 1 6-2.5c2.5 0 4.4.8 6 2.5zm40.7-15.4a29.2 29.2 0 0 0-7.3 5.8c-4.9 5.9-5.9 11.3-5.9 31.1 0 19.4.9 24.6 5.5 30.6 5.8 7.7 18.9 10.7 28.1 6.5a27.2 27.2 0 0 0 12.4-14c.5-2 1-12.8 1-24.1 0-17.8-.3-21-1.9-24.5a25.8 25.8 0 0 0-12.3-11.9c-5.4-2.3-14.4-2-19.6.5zm16.7 15.5c2 2.5 2.1 4 2.1 21.6 0 18.7 0 18.9-2.5 21.3a8.2 8.2 0 0 1-5.4 2.5c-8.1 0-9.1-2.6-9.1-24 0-21.7.8-23.7 9.2-23.9 2.8-.1 4.1.5 5.7 2.5zM185.7 296a24.3 24.3 0 0 0-19.2 19.5 24.6 24.6 0 0 0 12.8 24.4c4.3 2.1 5.4 2.1 72.5 2.1h68.3l4.9-2.5a23.3 23.3 0 0 0 12.1-15.9c2.2-10.1-3.2-21-12.8-25.8l-4.8-2.3-64.5-.2c-35.5 0-66.7.3-69.3.7zm130.5 15.1c6.6 1.8 8.6 9.1 3.8 13.9-2 2-3.6 2-68 2s-66 0-68-2a8.2 8.2 0 0 1 3.3-13.9c4.6-1.3 124.2-1.4 128.9 0z"/></svg>