<?xml version="1.0" encoding="UTF-8" standalone="no"?>
<svg
   xmlns:dc="http://purl.org/dc/elements/1.1/"
   xmlns:cc="http://creativecommons.org/ns#"
   xmlns:rdf="http://www.w3.org/1999/02/22-rdf-syntax-ns#"
   xmlns:svg="http://www.w3.org/2000/svg"
   xmlns="http://www.w3.org/2000/svg"
   xmlns:sodipodi="http://sodipodi.sourceforge.net/DTD/sodipodi-0.dtd"
   xmlns:inkscape="http://www.inkscape.org/namespaces/inkscape"
   width="176.28317mm"
   height="176.26427mm"
   viewBox="0 0 176.28317 176.26427"
   version="1.1"
   id="svg337"
   inkscape:version="1.0.2 (e86c870879, 2021-01-15)"
   sodipodi:docname="electronics_icon.svg">
  <defs
     id="defs331" />
  <sodipodi:namedview
     id="base"
     pagecolor="#ffffff"
     bordercolor="#666666"
     borderopacity="1.0"
     inkscape:pageopacity="0.0"
     inkscape:pageshadow="2"
     inkscape:zoom="0.35"
     inkscape:cx="343.10024"
     inkscape:cy="335.43112"
     inkscape:document-units="mm"
     inkscape:current-layer="layer1"
     inkscape:document-rotation="0"
     showgrid="false"
     inkscape:window-width="1920"
     inkscape:window-height="1030"
     inkscape:window-x="0"
     inkscape:window-y="0"
     inkscape:window-maximized="1" />
  <metadata
     id="metadata334">
    <rdf:RDF>
      <cc:Work
         rdf:about="">
        <dc:format>image/svg+xml</dc:format>
        <dc:type
           rdf:resource="http://purl.org/dc/dcmitype/StillImage" />
        <dc:title></dc:title>
      </cc:Work>
    </rdf:RDF>
  </metadata>
  <g
     inkscape:label="Layer 1"
     inkscape:groupmode="layer"
     id="layer1"
     transform="translate(-15.054728,-59.417183)">
    <path
       d="m 88.001951,187.08225 v 9.1186 c -0.0248,0.80201 -0.337619,1.55857 -0.890199,2.15251 l -11.267017,11.26702 v 8.41304 c 2.309601,0.84748 4.291189,2.60724 5.294489,4.86304 1.114848,2.51079 1.011484,5.52874 -0.267339,7.95408 -2.067066,3.9176 -7.233355,5.97535 -11.56723,4.16984 -2.929713,-1.21818 -5.1181,-4.064 -5.536847,-7.20584 -0.373451,-2.80293 0.640785,-5.75875 2.667882,-7.73783 0.945338,-0.92054 2.087739,-1.62609 3.330716,-2.06431 v -9.65024 c 0.0248,-0.79926 0.337619,-1.55857 0.887448,-2.14835 l 11.269485,-11.26948 v -7.86025 H 67.03647 c -1.734961,-0.0207 -3.303164,-1.51031 -3.350013,-3.28524 -0.0028,-0.0207 -0.0028,-0.0427 -0.0028,-0.0634 V 168.84858 H 32.764428 c -0.108864,0.31006 -0.234266,0.61736 -0.376202,0.91504 -1.97612,4.09398 -7.248526,6.3253 -11.716103,4.46475 -2.929714,-1.21817 -5.120922,-4.064 -5.541081,-7.20584 -0.370699,-2.78087 0.625616,-5.72029 2.629288,-7.70184 1.674319,-1.65089 3.996267,-2.60724 6.352822,-2.63204 h 0.115754 c 3.367934,0.0331 6.620228,2.06431 8.112478,5.06307 0.163985,0.33073 0.304546,0.66833 0.425803,1.01561 H 63.686394 V 150.61025 H 51.005797 c -0.108864,0.31006 -0.234266,0.61736 -0.38033,0.91504 -1.971956,4.09398 -7.245702,6.32813 -11.716102,4.46758 -2.929713,-1.21818 -5.1181,-4.064 -5.536847,-7.21008 -0.383081,-2.85115 0.683507,-5.86916 2.78638,-7.85071 1.656397,-1.5627 3.90525,-2.45844 6.191603,-2.48045 h 0.118512 c 3.367934,0.0303 6.620227,2.06431 8.108244,5.06306 0.163985,0.32798 0.307301,0.66834 0.428554,1.01562 h 12.680597 v -12.1599 H 32.767201 c -0.108864,0.31281 -0.234266,0.61736 -0.376202,0.91503 -1.97612,4.09399 -7.248526,6.32813 -11.716103,4.46758 -2.914544,-1.21267 -5.093406,-4.03084 -5.531556,-7.14798 -0.398251,-2.84427 0.638034,-5.84412 2.699562,-7.83555 1.666063,-1.60542 3.965927,-2.53421 6.272741,-2.55626 h 0.115753 c 3.365183,0.0331 6.650567,2.0822 8.135762,5.11528 0.151585,0.31281 0.285252,0.63528 0.401002,0.96326 H 63.687368 V 111.4049 c 0.02067,-1.7446 1.510312,-3.30317 3.285243,-3.35002 0.02067,0 0.04548,0 0.06752,-0.003 4.959702,0 9.923286,-0.0124 14.886869,-0.0275 v -7.83272 L 70.657514,88.924769 70.523843,88.778698 c -0.112998,-0.136426 -0.146071,-0.166744 -0.242535,-0.31557 -0.330729,-0.496077 -0.491948,-1.091424 -0.511245,-1.686702 v -9.650178 c -3.108854,-1.1424 -5.55625,-4.064 -6.000045,-7.373761 -0.380329,-2.838767 0.67109,-5.836003 2.747822,-7.813322 1.659149,-1.583372 3.923241,-2.498372 6.230055,-2.519045 h 0.118512 c 3.373438,0.03032 6.620228,2.064315 8.108245,5.063067 1.233346,2.480451 1.248515,5.521677 0.04823,8.009113 -1.026654,2.135964 -2.942096,3.781425 -5.175955,4.595636 v 8.430682 l 11.267016,11.267017 0.136427,0.146071 c 0.112998,0.136426 0.143316,0.166744 0.242534,0.31557 0.330729,0.496076 0.491949,1.091424 0.511246,1.686701 v 9.066033 c 4.054122,-0.0152 8.105775,-0.0331 12.1599,-0.0482 V 95.374547 c -0.15434,-0.05512 -0.307304,-0.112999 -0.461648,-0.176389 -2.909041,-1.209922 -5.090583,-4.020961 -5.531556,-7.151864 -0.39825,-2.841519 0.638034,-5.841646 2.702349,-7.832724 1.6619,-1.605421 3.923245,-2.534214 6.269915,-2.556263 0.04,-0.0028 0.0786,-0.0028 0.11852,0 3.33346,0.03032 6.54967,2.017466 8.06026,4.963583 1.27607,2.492868 1.31604,5.586588 0.0978,8.108244 -1.02386,2.127673 -2.94209,3.753908 -5.17595,4.562827 v 12.640729 c 4.0513,-0.01 8.10577,-0.0152 12.15707,-0.01 v -8.990184 c 0.0275,-0.799254 0.33762,-1.558572 0.8902,-2.148346 L 130.5605,85.517143 v -8.38272 c -0.15434,-0.05512 -0.3073,-0.112998 -0.46165,-0.176388 -2.90904,-1.209922 -5.09058,-4.020961 -5.53155,-7.151864 -0.39825,-2.838768 0.63803,-5.841647 2.70235,-7.832725 1.6619,-1.605421 3.95075,-2.534214 6.26992,-2.556263 h 0.11851 c 3.33347,0.03032 6.54967,2.017466 8.06026,4.966405 1.27607,2.492869 1.31604,5.583767 0.0978,8.105775 -1.02387,2.127674 -2.94209,3.753909 -5.17595,4.562828 v 9.723261 c -0.0275,0.799254 -0.33762,1.558572 -0.8902,2.148346 L 124.4805,100.19082 v 7.74735 c 4.9844,0.0179 9.9688,0.0551 14.95319,0.11575 0.26183,0.01 0.29766,0.0179 0.41342,0.0358 1.54341,0.22737 2.82635,1.62884 2.87183,3.24665 v 0.0675 14.88687 h 30.93684 c 0.47128,-1.32567 1.23335,-2.54384 2.24621,-3.52227 1.66606,-1.60542 3.96593,-2.53422 6.27274,-2.55627 h 0.11851 c 3.34314,0.0303 6.61317,2.06016 8.10825,5.06307 1.22784,2.47082 1.25264,5.51639 0.0482,8.00911 -1.97196,4.09399 -7.2457,6.32813 -11.7161,4.46758 -2.34957,-0.97839 -4.22099,-2.99998 -5.08777,-5.38268 h -30.92865 v 12.1599 h 12.70141 c 0.46853,-1.32567 1.23335,-2.54664 2.24621,-3.52228 1.6619,-1.60542 3.95076,-2.53421 6.26992,-2.55626 h 0.11851 c 3.49194,0.033 6.85976,2.23104 8.27652,5.41302 1.12173,2.52596 1.01561,5.56436 -0.29214,8.00241 -2.08774,3.89996 -7.21254,5.92702 -11.54395,4.12433 -2.34678,-0.9784 -4.22099,-2.99724 -5.08776,-5.38269 h -12.68906 v 12.15708 h 30.93967 c 0.43822,-1.24023 1.12998,-2.38951 2.05189,-3.32797 1.6812,-1.72392 4.03613,-2.72577 6.4643,-2.75057 h 0.11851 c 3.49194,0.0331 6.8573,2.23104 8.27229,5.41585 1.13965,2.55901 1.00873,5.64444 -0.34313,8.10013 -2.1208,3.84457 -7.22489,5.79896 -11.48856,4.02378 -2.34957,-0.97564 -4.23334,-2.99311 -5.09341,-5.37986 h -30.92168 v 14.88687 c -0.0207,1.72942 -1.48001,3.30041 -3.28524,3.35001 h -0.0634 -14.8897 v 7.86024 l 11.26949,11.26949 0.13643,0.14331 c 0.38033,0.4644 0.65045,1.01837 0.72623,1.60818 0.0248,0.17638 0.0207,0.22186 0.0276,0.39825 v 9.67105 c 2.3096,0.84748 4.29119,2.60724 5.29449,4.86304 1.10931,2.49287 1.01836,5.48605 -0.23978,7.90575 -2.0574,3.95358 -7.2637,6.0205 -11.59475,4.21816 -2.73816,-1.13965 -4.83835,-3.68617 -5.4349,-6.58565 -0.59531,-2.90492 0.33762,-6.08119 2.41018,-8.2035 0.97289,-0.99631 2.17593,-1.75425 3.48643,-2.21865 v -8.39082 l -11.26947,-11.26702 -0.13643,-0.14607 c -0.113,-0.13643 -0.14331,-0.17088 -0.23978,-0.31557 -0.33073,-0.49608 -0.49195,-1.09142 -0.51399,-1.68949 v -9.1186 h -12.15708 v 12.71376 c 2.3096,0.84748 4.29119,2.60724 5.29449,4.86022 1.12173,2.52596 1.01561,5.56436 -0.29214,8.00488 -2.08774,3.89714 -7.21254,5.9242 -11.543949,4.12186 -2.909041,-1.21268 -5.090584,-4.02096 -5.531556,-7.15187 -0.398251,-2.84152 0.638034,-5.84165 2.702348,-7.83272 0.932921,-0.90262 2.067066,-1.58888 3.292127,-2.02435 V 187.08545 H 88.004449 Z m 45.575359,36.4737 c -1.34909,0.0152 -2.62241,1.01836 -2.93659,2.3344 -0.33073,1.38631 0.45614,2.95176 1.77489,3.5071 1.67432,0.71106 3.88479,-0.43409 4.18218,-2.31648 0.2701,-1.6867 -1.0845,-3.48368 -2.94209,-3.52227 -0.0248,-0.003 -0.051,-0.003 -0.0786,-0.003 z m -60.790664,0 c -1.349093,0.0152 -2.634827,1.02111 -2.942096,2.35232 -0.319705,1.38356 0.474062,2.93659 1.780434,3.48918 1.674318,0.71106 3.884789,-0.43409 4.18218,-2.31648 0.270094,-1.6867 -1.084509,-3.48368 -2.942096,-3.52227 -0.0248,-0.003 -0.05099,-0.003 -0.07855,-0.003 z m 30.396744,-18.23544 c -1.34909,0.0124 -2.62241,1.01561 -2.93659,2.33165 -0.330732,1.38631 0.45614,2.95176 1.77489,3.50985 1.6812,0.71106 3.89714,-0.45339 4.18501,-2.33715 0.25769,-1.6867 -1.11207,-3.46438 -2.94489,-3.50435 h -0.0785 z M 69.768632,181.00213 H 136.63766 V 114.1331 H 69.768632 Z M 24.150938,162.76387 c -1.343589,0.0152 -2.619657,1.00598 -2.936592,2.3344 -0.327974,1.38631 0.458893,2.95176 1.777682,3.5071 1.674319,0.71106 3.880556,-0.43409 4.182181,-2.31648 0.267338,-1.69224 -1.10931,-3.48368 -2.942096,-3.52502 h -0.08268 z m 158.062082,0 c -1.34909,0.0152 -2.62653,1.01561 -2.93934,2.3344 -0.32798,1.38631 0.45889,2.95176 1.77768,3.5071 1.6812,0.71106 3.89714,-0.44647 4.185,-2.33715 0.2577,-1.68395 -1.11206,-3.46163 -2.94488,-3.50435 h -0.0786 z M 42.38955,144.52843 c -1.346341,0.0124 -2.622409,1.01149 -2.939345,2.33165 -0.327974,1.38631 0.458894,2.95176 1.777683,3.50986 1.674318,0.70831 3.880555,-0.43822 4.18218,-2.31923 0.270097,-1.69224 -1.10931,-3.48368 -2.942096,-3.52228 h -0.07855 z m 121.58486,0 c -1.34909,0.0124 -2.62241,1.01561 -2.93659,2.33165 -0.33073,1.38631 0.45614,2.95176 1.77489,3.50986 1.6812,0.71106 3.89714,-0.45339 4.18501,-2.33715 0.25769,-1.68671 -1.11206,-3.46439 -2.94489,-3.50436 h -0.0786 z m 18.23826,-18.23826 c -1.99954,0.0179 -3.64349,2.37988 -2.73816,4.32153 0.65321,1.39457 2.46807,2.1208 3.90525,1.53515 1.57787,-0.64767 2.36746,-2.7602 1.50756,-4.29401 -0.51399,-0.92054 -1.51997,-1.5379 -2.59623,-1.5627 h -0.0786 z m -158.062084,0 c -1.346341,0.0124 -2.622409,1.00874 -2.936593,2.33441 -0.327974,1.38355 0.458893,2.95176 1.777682,3.5071 1.681198,0.71106 3.897136,-0.45339 4.185003,-2.33715 0.254939,-1.6812 -1.103806,-3.46163 -2.944883,-3.50436 h -0.08268 z M 103.18339,83.738119 c -1.34359,0.01242 -2.62241,1.008733 -2.93659,2.331649 -0.330732,1.386311 0.45889,2.951762 1.77489,3.509857 1.67432,0.708307 3.88479,-0.438221 4.18218,-2.319232 0.2701,-1.683949 -1.09692,-3.48368 -2.94209,-3.522274 h -0.0786 z m 30.39674,-18.238258 c -1.34909,0.0124 -2.62241,1.015612 -2.93659,2.334401 -0.33073,1.383559 0.45889,2.951762 1.7749,3.507105 1.67432,0.708307 3.88479,-0.434093 4.18218,-2.31648 0.27009,-1.696367 -1.09693,-3.483681 -2.9421,-3.525026 h -0.0786 z m -60.790662,0 c -1.343589,0.0124 -2.622409,1.005981 -2.936593,2.334401 -0.330729,1.383559 0.458894,2.951762 1.774896,3.507105 1.674318,0.708307 3.884789,-0.438221 4.18218,-2.31648 0.270094,-1.686701 -1.096927,-3.483681 -2.942096,-3.525026 h -0.07855 z"
       id="path254"
       style="stroke-width:0.352778" />
  </g>
</svg>
