<svg xmlns="http://www.w3.org/2000/svg" width="705.6" height="705.6" viewBox="0 0 186.7 186.7"><path d="M192.9 151.3a4 4 0 0 0 0-7.9h-33V120h33a4 4 0 0 0 0-7.9h-33v-8.3a13 13 0 0 0-12.8-13h-8.4V58a4 4 0 0 0-7.9 0v32.9h-23.4v-33a4 4 0 0 0-7.9 0v33H76.2v-33a4 4 0 0 0-8 0v33H60a13 13 0 0 0-13 12.9v8.3H14.1a4 4 0 0 0 0 8h33v23.3H14a4 4 0 0 0 0 7.9h33v23.4H14a4 4 0 0 0 0 7.9h33v8.3a13 13 0 0 0 12.8 13h8.4v32.8a4 4 0 0 0 7.9 0v-32.9h23.3v33a4 4 0 0 0 8 0v-33h23.3v33a4 4 0 0 0 8 0v-33h8.3a13 13 0 0 0 13-12.8v-8.3h32.9a4 4 0 0 0 0-8h-33v-23.3zM152 190.9a5 5 0 0 1-5 5H59.9a5 5 0 0 1-5-5v-87.1a5 5 0 0 1 5-5h87.2a5 5 0 0 1 5 5z" style="stroke-width:.352778" transform="translate(-10.1 -54)"/></svg>