<svg xmlns="http://www.w3.org/2000/svg" width="726.4" height="688.9" viewBox="0 0 192.2 182.3"><path d="m192.8 121-25.7-22.4V55.4a3 3 0 0 0-3-3H40a3 3 0 0 0-3 3v44.7l-24 21a17.9 17.9 0 0 0-6 13.7v81.6c0 10 8.2 18.3 18.3 18.3H181c10 0 18.2-8.2 18.2-18.3v-81.6c0-5.4-2.1-10.2-6.3-13.8zm-3.9 4.6c2.8 2.4 4.2 5.5 4.2 9.2v5.8l-26 17.4v-51.4Zm-27.8-67.2V162l-56.7 38L43 158.7V58.4ZM17 125.6l20-17.5v46.7l-24.2-16v-4c0-3.7 1.5-6.8 4.3-9.2zm163.8 103H25.2c-6.8 0-12.3-5.4-12.3-12.2V146l89.9 60.1a3 3 0 0 0 3.3 0l87-58.2v68.6c0 6.8-5.5 12.3-12.2 12.3zm-78.7-70c13 0 25-5.8 33.3-15.8a3 3 0 1 0-4.6-3.8 37 37 0 1 1-28.7-60.5 38 38 0 0 1 27.7 11.2 30.7 30.7 0 0 1 8.4 16.6v.4c.3 2 .4 4 .4 6-.3 1.2-1 2.2-1.6 3a10.4 10.4 0 0 1-7.7 3.4 9.6 9.6 0 0 1-9.6-9.6V99.2a3 3 0 0 0-6 0v1.7a19.3 19.3 0 0 0-32 14.6 19.4 19.4 0 0 0 37.7 6 16 16 0 0 0 22.2-2 13.2 13.2 0 0 0 3-10.4l-.4-3.3-.1-.6v-.6l-.3-.6c-1.3-7-4.6-13.2-9.7-18.5-8-8.3-19.6-13-32-13a43.1 43.1 0 0 0 0 86zm-1-29.7a13.4 13.4 0 0 1 0-26.8 13.3 13.3 0 0 1 0 26.8z" style="stroke-width:.352778" transform="translate(-7 -52.4)"/></svg>