<svg xmlns="http://www.w3.org/2000/svg" width="709.1" height="709.3" viewBox="0 0 187.6 187.7"><path d="m149.3 232.3-1.5-.1c-73.8-13-119.6-58.7-136-136a8.4 8.4 0 0 1 1.3-6.9 101 101 0 0 1 25.4-25.8c2.9-2 6.8-2.2 9.9-.5a91 91 0 0 1 33.8 33.5 9.6 9.6 0 0 1-1.4 11.8l-15.3 15.2a5.7 5.7 0 0 0-1 6.7 121 121 0 0 0 20.9 28.2c8 8 17.5 15 28.2 20.8 2.2 1.2 4.9.8 6.6-1l15.3-15.2c3.1-3.1 8-3.7 11.8-1.4a91 91 0 0 1 33.5 33.8c1.7 3.1 1.5 7-.5 9.9a101 101 0 0 1-26 25.5 9 9 0 0 1-5 1.5zM43.8 68c-.6 0-1.3.2-1.9.6A95 95 0 0 0 18 92.8c-.4.6-.5 1.4-.4 2.1 16 74.7 60 118.9 131.3 131.3.7.2 1.4 0 2-.4a95 95 0 0 0 24.4-24c.7-1 .8-2.4.2-3.4a85 85 0 0 0-31.4-31.6 3.5 3.5 0 0 0-4.3.5l-15.3 15.2a11.8 11.8 0 0 1-13.8 2A127 127 0 0 1 81 162.7 127 127 0 0 1 59.3 133a11.8 11.8 0 0 1 2-13.8L76.5 104c1.2-1.1 1.4-3 .5-4.3a85 85 0 0 0-31.6-31.4c-.5-.2-1-.4-1.6-.4Zm113.5 65.9a52.5 52.5 0 0 0-47.4-47.4l.6-6a58.5 58.5 0 0 1 52.8 52.8zm35.8-3.4a88.4 88.4 0 0 0-79.9-79.8l.6-6A94.5 94.5 0 0 1 199 130z" style="stroke-width:.352778" transform="translate(-11.5 -44.7)"/></svg>