<?xml version="1.0" encoding="UTF-8" standalone="no"?>
<svg
   xmlns:dc="http://purl.org/dc/elements/1.1/"
   xmlns:cc="http://creativecommons.org/ns#"
   xmlns:rdf="http://www.w3.org/1999/02/22-rdf-syntax-ns#"
   xmlns:svg="http://www.w3.org/2000/svg"
   xmlns="http://www.w3.org/2000/svg"
   xmlns:sodipodi="http://sodipodi.sourceforge.net/DTD/sodipodi-0.dtd"
   xmlns:inkscape="http://www.inkscape.org/namespaces/inkscape"
   width="185.70364mm"
   height="148.2964mm"
   viewBox="0 0 185.70364 148.2964"
   version="1.1"
   id="svg468"
   inkscape:version="1.0.2 (e86c870879, 2021-01-15)"
   sodipodi:docname="programming_icon.svg">
  <defs
     id="defs462" />
  <sodipodi:namedview
     id="base"
     pagecolor="#ffffff"
     bordercolor="#666666"
     borderopacity="1.0"
     inkscape:pageopacity="0.0"
     inkscape:pageshadow="2"
     inkscape:zoom="0.35"
     inkscape:cx="348.4918"
     inkscape:cy="354.73176"
     inkscape:document-units="mm"
     inkscape:current-layer="layer1"
     inkscape:document-rotation="0"
     showgrid="false"
     inkscape:window-width="1412"
     inkscape:window-height="908"
     inkscape:window-x="45"
     inkscape:window-y="45"
     inkscape:window-maximized="0" />
  <metadata
     id="metadata465">
    <rdf:RDF>
      <cc:Work
         rdf:about="">
        <dc:format>image/svg+xml</dc:format>
        <dc:type
           rdf:resource="http://purl.org/dc/dcmitype/StillImage" />
        <dc:title></dc:title>
      </cc:Work>
    </rdf:RDF>
  </metadata>
  <g
     inkscape:label="Layer 1"
     inkscape:groupmode="layer"
     id="layer1"
     transform="translate(-13.628212,-54.310554)">
    <path
       d="m 80.328258,95.692445 c -0.625616,-1.511724 -2.359201,-2.232413 -3.872441,-1.604046 l -30.37593,12.584291 c -1.169953,0.48369 -1.854835,1.63435 -1.818993,2.8291 -0.03583,1.19338 0.650452,2.34541 1.818993,2.8291 l 30.37593,12.58288 c 0.372074,0.15434 0.755156,0.22462 1.13411,0.22462 1.161697,0 2.265503,-0.68901 2.738155,-1.83004 0.625616,-1.5131 -0.09095,-3.24527 -1.604046,-3.87244 l -23.987477,-9.93563 23.987477,-9.935634 c 1.5131,-0.625616 2.229662,-2.357825 1.604046,-3.872441 z"
       id="path342"
       style="stroke-width:0.352778" />
    <path
       d="m 97.977726,83.870861 c -1.57233,-0.440972 -3.21221,0.465773 -3.66007,2.042266 L 80.802039,133.52049 c -0.446476,1.57508 0.465772,3.21221 2.04089,3.66007 0.270093,0.0744 0.54296,0.11299 0.811671,0.11299 1.289826,0 2.477696,-0.85164 2.848396,-2.15526 L 100.01757,87.530934 c 0.44922,-1.576493 -0.465784,-3.213594 -2.039484,-3.660069 z"
       id="path344"
       style="stroke-width:0.352778" />
    <path
       d="m 157.84412,180.75422 h 5.92702 v 5.92702 h -5.92702 z"
       id="path346"
       style="stroke-width:0.352778" />
    <path
       d="M 192.41634,99.752917 H 171.7291 V 62.414918 c 0,-4.468989 -3.64349,-8.104364 -8.11389,-8.104364 l -141.873109,0.0014 c -4.476044,0.0014 -8.113889,3.636786 -8.113889,8.102952 V 162.93186 c 0,4.46616 3.635375,8.10154 8.105775,8.10154 l 53.135388,-0.1006 v 15.7413 h -7.901517 v 5.92702 h 25.682578 v 5.38938 c 0,2.54385 2.06981,4.61645 4.61645,4.61645 h 32.251654 c 2.54663,0 4.61927,-2.07257 4.61927,-4.61645 v -1.43591 h 58.27889 c 3.81317,0 6.91515,-3.10197 6.91515,-6.91515 l -0.001,-82.97333 c 0,-3.81318 -3.10197,-6.915151 -6.91373,-6.915151 z M 21.731871,168.07186 v -2.96277 c -1.180995,0 -2.175934,-0.99631 -2.175934,-2.17593 V 62.416188 c 0,-1.179619 1.001819,-2.17731 2.188316,-2.17731 H 163.61736 c 1.20305,0 2.18694,0.975643 2.18694,2.17731 v 37.334471 h -36.60774 c -2.06845,0 -3.90137,0.930171 -5.17032,2.370241 l -19.39572,-8.033806 c -1.51585,-0.628368 -3.24527,0.09233 -3.87244,1.604045 -0.62561,1.513099 0.091,3.245274 1.60405,3.872442 l 19.921,8.251829 v 3.37068 l -19.91959,8.25041 c -1.5131,0.62562 -2.23104,2.35921 -1.60405,3.87245 0.47265,1.13964 1.5765,1.83003 2.73816,1.83003 0.37758,0 0.76207,-0.0717 1.13136,-0.22462 l 17.65405,-7.31449 v 13.75022 L 97.113076,131.2233 c -1.2747,0 -2.47082,0.50024 -3.37207,1.40836 -0.89711,0.90537 -1.38493,2.10012 -1.37251,3.36381 l 0.24667,28.9814 -70.880113,0.13505 z m 59.065582,18.60338 V 170.9216 l 11.854043,-0.0221 v 15.77446 H 80.797453 Z m 47.413337,10.00443 H 98.577456 v -25.79123 h 0.0152 l -0.0152,-1.81074 v -31.78845 h 26.604384 l 3.02891,0.0152 z m 65.19333,-7.03898 c 0,0.53605 -0.45198,0.98806 -0.98806,0.98806 h -58.27889 v -54.6488 c 0,-2.54385 -2.07257,-4.61645 -4.61927,-4.61645 h -1.30637 v -24.69586 c 0,-0.53604 0.45198,-0.98806 0.98806,-0.98806 h 63.21778 c 0.53604,0 0.98806,0.45198 0.98806,0.98806 z"
       id="path348"
       style="stroke-width:0.352778" />
    <path
       d="m 110.43079,186.68089 h 5.92702 v 5.92702 h -5.92702 z"
       id="path350"
       style="stroke-width:0.352778" />
  </g>
</svg>
