<svg xmlns="http://www.w3.org/2000/svg" width="701.9" height="560.5" viewBox="0 0 185.7 148.3"><path d="M80.3 95.7a3 3 0 0 0-3.8-1.6L46 106.7a3 3 0 0 0-1.8 2.8 3 3 0 0 0 1.8 2.8L76.5 125c.3.2.7.2 1 .2a3 3 0 0 0 1.2-5.7l-24-9.9 24-10a3 3 0 0 0 1.6-3.8zM98 83.9a3 3 0 0 0-3.7 2l-13.5 47.6a3 3 0 1 0 5.7 1.6L100 87.5a3 3 0 0 0-2-3.6zm59.8 96.9h6v5.9h-6z" style="stroke-width:.352778" transform="translate(-13.6 -54.3)"/><path d="M192.4 99.8h-20.7V62.4a8 8 0 0 0-8-8h-142a8.1 8.1 0 0 0-8 8V163a8 8 0 0 0 8 8.1H75v15.7h-8v5.9h25.8v5.4c0 2.5 2 4.6 4.6 4.6h32.2c2.6 0 4.6-2 4.6-4.6v-1.4h58.3a7 7 0 0 0 7-7v-83a7 7 0 0 0-7-6.8zM21.7 168v-3c-1.1 0-2.1-1-2.1-2.2V62.4c0-1.2 1-2.2 2.1-2.2h142c1.1 0 2.1 1 2.1 2.2v37.4h-36.6c-2 0-3.9.9-5.2 2.3l-19.4-8a3 3 0 1 0-2.2 5.5l19.9 8.2v3.4l-20 8.2a3 3 0 1 0 2.3 5.5l17.7-7.3v13.8l-25.2-.2a4.7 4.7 0 0 0-4.7 4.8l.2 29-70.9.1zm59.1 18.6v-15.8h11.9v15.8H80.8Zm47.4 10H98.6v-59.3h29.6zm65.2-7c0 .5-.4 1-1 1h-58.3V136c0-2.6-2-4.6-4.6-4.6h-1.3v-24.7c0-.6.5-1 1-1h63.2c.6 0 1 .4 1 1z" style="stroke-width:.352778" transform="translate(-13.6 -54.3)"/><path d="M110.4 186.7h6v6h-6z" style="stroke-width:.352778" transform="translate(-13.6 -54.3)"/></svg>