<svg xmlns="http://www.w3.org/2000/svg" width="571.3" height="729.9" viewBox="0 0 151.1 193.1"><path d="M122.7 234.1h-76a2.1 2.1 0 0 1-2.1-2.7c.1-.6 13.5-56.4 1-76-7.3-11.4-11-25-10.8-39.3a82.6 82.6 0 0 1 10.5-38.8c12.8-23 34.2-36.6 57.3-36.3 23.4.3 64.2 9.5 73.9 66.9 1.1 6.7-1.5 11.8-3.5 16-2.5 4.7-3 6.4-.8 8.7l.8.8c6.9 7 14.7 14.8 12.6 22.2-1.2 4.4-5.7 7.6-13.6 10v31c0 1.2-1 2.2-2.2 2.2h-45V232c0 1.2-1 2.1-2.1 2.1zm-73.3-4.3h71v-33.2c0-1.3 1-2.2 2.3-2.2h44.9v-30.5c0-1 .6-2 1.6-2.2 7.2-1.8 11.4-4.3 12.2-7.3 1.4-5-5.8-12.1-11.5-17.9l-.8-.8c-4.7-4.8-2.2-9.6 0-13.9 1.8-3.7 4-7.9 3-13.2-9.1-54.3-47.5-62.9-69.6-63.2-21.4-.3-41.4 12.4-53.4 34a73 73 0 0 0 .2 73.7c11.9 18.7 2.8 64.8.1 76.7z" style="stroke-width:.352778" transform="translate(-34.8 -41)"/><path d="M107.3 138a2 2 0 0 1-1.6-.6c-14.9-15-30.3-30.4-30.3-46.1a17 17 0 0 1 17-17c7.4 0 11.5 3.3 14.9 8.7 3.3-5.4 7.5-8.7 14.8-8.7a17 17 0 0 1 17 17c0 15.7-15.4 31.2-30.3 46a2 2 0 0 1-1.5.7zM92.4 78.7c-7 0-12.6 5.6-12.6 12.6 0 13.5 13.7 27.6 27.4 41.5 13.8-13.8 27.5-28 27.5-41.5 0-7-5.6-12.6-12.6-12.6-6 0-9.2 2.5-12.9 10-.4.7-1.1 1.1-2 1.1-.8 0-1.5-.4-2-1.2-3.6-7.4-6.9-10-12.8-10zm60.7 51.7a6.6 6.6 0 1 1 0-13.2 6.6 6.6 0 0 1 0 13.2zm0-8.8c-1.2 0-2.2 1-2.2 2.2 0 1.2 1 2.2 2.2 2.2 1.2 0 2.2-1 2.2-2.2 0-1.2-1-2.2-2.2-2.2z" style="stroke-width:.352778" transform="translate(-34.8 -41)"/><path d="M148.7 126H119c-1.2 0-2.2-1-2.2-2.2 0-1.2 1-2.2 2.2-2.2h29.7c1.2 0 2.2 1 2.2 2.2 0 1.2-1 2.2-2.2 2.2zm0-15H131c-1.2 0-2.2-1-2.2-2.2 0-1.2 1-2.2 2.2-2.2h17.7c1.3 0 2.2 1 2.2 2.2 0 1.2-1 2.2-2.2 2.2z" style="stroke-width:.352778" transform="translate(-34.8 -41)"/><path d="M153.1 115.4a6.6 6.6 0 1 1 0-13.2 6.6 6.6 0 0 1 0 13.2zm0-8.8c-1.2 0-2.2 1-2.2 2.2 0 1.2 1 2.2 2.2 2.2 1.2 0 2.2-1 2.2-2.2 0-1.2-1-2.2-2.2-2.2zm-91.7 23.8a6.6 6.6 0 1 1 0-13.2 6.6 6.6 0 0 1 0 13.2zm0-8.8c-1.2 0-2.2 1-2.2 2.2 0 1.2 1 2.2 2.2 2.2 1.2 0 2.2-1 2.2-2.2 0-1.2-1-2.2-2.2-2.2z" style="stroke-width:.352778" transform="translate(-34.8 -41)"/><path d="M95.5 126H65.8c-1.2 0-2.2-1-2.2-2.2 0-1.2 1-2.2 2.2-2.2h29.7c1.2 0 2.2 1 2.2 2.2 0 1.2-1 2.2-2.2 2.2zm-12-15H65.8c-1.2 0-2.2-1-2.2-2.2 0-1.2 1-2.2 2.2-2.2h17.7c1.3 0 2.2 1 2.2 2.2 0 1.2-1 2.2-2.2 2.2z" style="stroke-width:.352778" transform="translate(-34.8 -41)"/><path d="M61.4 115.4a6.6 6.6 0 1 1 0-13.2 6.6 6.6 0 0 1 0 13.2zm0-8.8c-1.2 0-2.2 1-2.2 2.2 0 1.2 1 2.2 2.2 2.2 1.2 0 2.2-1 2.2-2.2 0-1.2-1-2.2-2.2-2.2zm63.7 48.4a6.6 6.6 0 1 1 0-13.2 6.6 6.6 0 0 1 0 13.1zm0-8.8c-1.2 0-2.2 1-2.2 2.2 0 1.1 1 2.2 2.2 2.2 1.2 0 2.2-1 2.2-2.2 0-1.2-1-2.2-2.2-2.2z" style="stroke-width:.352778" transform="translate(-34.8 -41)"/><path d="M125.1 146.2c-1.2 0-2.2-1-2.2-2.2v-19.2c0-1.2 1-2.2 2.2-2.2 1.2 0 2.2 1 2.2 2.2V144c0 1.2-1 2.2-2.2 2.2zm17.3 8.8a6.6 6.6 0 1 1 0-13.2 6.6 6.6 0 0 1 0 13.1zm0-8.8c-1.3 0-2.2 1-2.2 2.2 0 1.1 1 2.2 2.2 2.2 1.1 0 2.2-1 2.2-2.2 0-1.2-1-2.2-2.2-2.2z" style="stroke-width:.352778" transform="translate(-34.8 -41)"/><path d="M142.4 146.2c-1.3 0-2.2-1-2.2-2.2v-19.2c0-1.2 1-2.2 2.2-2.2 1.2 0 2.2 1 2.2 2.2V144c0 1.2-1 2.2-2.2 2.2zM72.2 155a6.6 6.6 0 1 1 0-13.2 6.6 6.6 0 0 1 0 13.1zm0-8.8c-1.3 0-2.2 1-2.2 2.2 0 1.1 1 2.2 2.2 2.2 1.2 0 2.2-1 2.2-2.2 0-1.2-1-2.2-2.2-2.2z" style="stroke-width:.352778" transform="translate(-34.8 -41)"/><path d="M72.2 146.2c-1.3 0-2.2-1-2.2-2.2v-19.2c0-1.2 1-2.2 2.2-2.2 1.2 0 2.2 1 2.2 2.2V144c0 1.2-1 2.2-2.2 2.2zm17.2 8.8a6.6 6.6 0 1 1 0-13.2 6.6 6.6 0 0 1 0 13.1zm0-8.8c-1.2 0-2.2 1-2.2 2.2 0 1.1 1 2.2 2.2 2.2 1.2 0 2.2-1 2.2-2.2 0-1.2-1-2.2-2.2-2.2z" style="stroke-width:.352778" transform="translate(-34.8 -41)"/><path d="M89.4 146.2c-1.2 0-2.2-1-2.2-2.2v-19.2c0-1.2 1-2.2 2.2-2.2 1.2 0 2.2 1 2.2 2.2V144c0 1.2-1 2.2-2.2 2.2z" style="stroke-width:.352778" transform="translate(-34.8 -41)"/></svg>