<?xml version="1.0" encoding="UTF-8" standalone="no"?>
<svg
   xmlns:dc="http://purl.org/dc/elements/1.1/"
   xmlns:cc="http://creativecommons.org/ns#"
   xmlns:rdf="http://www.w3.org/1999/02/22-rdf-syntax-ns#"
   xmlns:svg="http://www.w3.org/2000/svg"
   xmlns="http://www.w3.org/2000/svg"
   xmlns:sodipodi="http://sodipodi.sourceforge.net/DTD/sodipodi-0.dtd"
   xmlns:inkscape="http://www.inkscape.org/namespaces/inkscape"
   width="151.14417mm"
   height="193.1273mm"
   viewBox="0 0 151.14417 193.1273"
   version="1.1"
   id="svg3221"
   inkscape:version="1.0.2 (e86c870879, 2021-01-15)"
   sodipodi:docname="soft_skills_icon.svg">
  <defs
     id="defs3215" />
  <sodipodi:namedview
     id="base"
     pagecolor="#ffffff"
     bordercolor="#666666"
     borderopacity="1.0"
     inkscape:pageopacity="0.0"
     inkscape:pageshadow="2"
     inkscape:zoom="0.35"
     inkscape:cx="268.4839"
     inkscape:cy="404.96498"
     inkscape:document-units="mm"
     inkscape:current-layer="layer1"
     inkscape:document-rotation="0"
     showgrid="false"
     inkscape:window-width="1412"
     inkscape:window-height="908"
     inkscape:window-x="45"
     inkscape:window-y="45"
     inkscape:window-maximized="0" />
  <metadata
     id="metadata3218">
    <rdf:RDF>
      <cc:Work
         rdf:about="">
        <dc:format>image/svg+xml</dc:format>
        <dc:type
           rdf:resource="http://purl.org/dc/dcmitype/StillImage" />
        <dc:title></dc:title>
      </cc:Work>
    </rdf:RDF>
  </metadata>
  <g
     inkscape:label="Layer 1"
     inkscape:groupmode="layer"
     id="layer1"
     transform="translate(-34.796967,-41.019682)">
    <path
       d="M 122.65213,234.14071 H 46.702599 c -0.658706,0 -1.317413,-0.30731 -1.711536,-0.83372 -0.395499,-0.52642 -0.570512,-1.22922 -0.395499,-1.88793 0.132291,-0.57051 13.477169,-56.45855 1.054205,-75.99186 C 38.318695,144.01308 34.587011,130.40326 34.806086,116.09248 35.025193,102.70209 38.66865,89.269021 45.3425,77.329258 58.072839,54.28158 79.497033,40.714453 102.63361,41.024897 c 23.39904,0.307302 64.13853,9.438217 73.83991,66.861973 1.14103,6.76063 -1.44832,11.85404 -3.5126,15.93568 -2.41434,4.78437 -3.02892,6.49746 -0.78963,8.78099 l 0.83372,0.83372 c 6.84883,6.89292 14.66215,14.75034 12.59946,22.12587 -1.22922,4.43441 -5.70794,7.68244 -13.65356,10.01006 v 30.99471 c 0,1.22922 -0.96601,2.19523 -2.19523,2.19523 h -44.90861 v 33.18862 c 0,1.22922 -1.01011,2.19523 -2.19523,2.19523 z m -73.226086,-4.39032 h 71.031806 v -33.18863 c 0,-1.22922 0.96601,-2.19523 2.19523,-2.19523 h 44.91214 v -30.51105 c 0,-1.0101 0.6587,-1.88792 1.66881,-2.10703 7.1561,-1.84383 11.37003,-4.39032 12.16131,-7.37517 1.36151,-4.91702 -5.75063,-12.07312 -11.50232,-17.86749 l -0.83372,-0.83372 c -4.69759,-4.74169 -2.19523,-9.57051 -0.0441,-13.87263 1.88793,-3.68759 3.99486,-7.85883 3.11711,-13.214 C 162.95445,54.321162 124.62726,45.716912 102.5469,45.409996 81.079664,45.102694 61.102565,57.834476 49.076371,79.38955 c -13.213997,23.88129 -13.1699,52.81083 0.219106,73.66705 11.898136,18.74556 2.765707,64.88642 0.132292,76.69389 z"
       id="path3058"
       style="stroke-width:0.352778" />
    <path
       d="m 107.28513,138.04051 c -0.57052,0 -1.14103,-0.2191 -1.53653,-0.6587 -14.926731,-14.92674 -30.336064,-30.33607 -30.336064,-46.097475 0,-9.39553 7.638345,-17.033875 17.033875,-17.033875 7.331075,0 11.502319,3.380317 14.838539,8.780992 3.33622,-5.400675 7.50746,-8.780992 14.83854,-8.780992 9.39553,0 17.03387,7.638345 17.03387,17.033875 0,15.760695 -15.40933,31.169675 -30.33606,46.097475 -0.3955,0.43959 -0.96601,0.6587 -1.53653,0.6587 z M 92.402137,78.685653 c -6.979708,0 -12.643555,5.663847 -12.643555,12.643555 0,13.433072 13.697655,27.614382 27.482098,41.444332 13.78443,-13.78444 27.48209,-28.00879 27.48209,-41.444332 0,-6.979708 -5.66385,-12.643555 -12.64356,-12.643555 -5.92701,0 -9.17504,2.502535 -12.86263,9.921875 -0.39549,0.746901 -1.14102,1.229219 -1.97612,1.229219 -0.83372,0 -1.58062,-0.482318 -1.97612,-1.229219 -3.68758,-7.419269 -6.935607,-9.921875 -12.862626,-9.921875 z"
       id="path3060"
       style="stroke-width:0.352778" />
    <path
       d="m 153.11801,130.40287 c -3.64349,0 -6.58565,-2.94072 -6.58565,-6.58565 0,-3.64349 2.94072,-6.58566 6.58565,-6.58566 3.64349,0 6.58566,2.94072 6.58566,6.58566 0,3.6008 -2.9421,6.58565 -6.58566,6.58565 z m 0,-8.82367 c -1.22922,0 -2.19523,1.01011 -2.19523,2.19523 0,1.18512 1.01011,2.19523 2.19523,2.19523 1.18513,0 2.19523,-1.01011 2.19523,-2.19523 0,-1.18512 -0.96601,-2.19523 -2.19523,-2.19523 z"
       id="path3062"
       style="stroke-width:0.352778" />
    <path
       d="m 148.72946,126.01079 h -29.72012 c -1.22922,0 -2.19523,-0.96601 -2.19523,-2.19523 0,-1.22922 0.96601,-2.19523 2.19523,-2.19523 h 29.67743 c 1.22922,0 2.19523,0.96601 2.19523,2.19523 -0.001,1.2306 -0.92329,2.19523 -2.15251,2.19523 z"
       id="path3064"
       style="stroke-width:0.352778" />
    <path
       d="m 148.72946,110.99657 h -17.73661 c -1.22922,0 -2.19523,-0.96601 -2.19523,-2.19523 0,-1.22922 0.96601,-2.19523 2.19523,-2.19523 h 17.73661 c 1.22922,0 2.19523,0.96601 2.19523,2.19523 0,1.22922 -0.96601,2.19523 -2.19523,2.19523 z"
       id="path3066"
       style="stroke-width:0.352778" />
    <path
       d="m 153.11801,115.38865 c -3.64349,0 -6.58565,-2.94072 -6.58565,-6.58565 0,-3.64349 2.94072,-6.58566 6.58565,-6.58566 3.64349,0 6.58566,2.94072 6.58566,6.58566 0,3.64349 -2.9421,6.58565 -6.58566,6.58565 z m 0,-8.78099 c -1.22922,0 -2.19523,1.01011 -2.19523,2.19523 0,1.18512 1.01011,2.19523 2.19523,2.19523 1.18513,0 2.19523,-1.01011 2.19523,-2.19523 0,-1.18512 -0.96601,-2.19523 -2.19523,-2.19523 z"
       id="path3068"
       style="stroke-width:0.352778" />
    <path
       d="m 61.409905,130.40287 c -3.643489,0 -6.585656,-2.94072 -6.585656,-6.58565 0,-3.64349 2.94072,-6.58566 6.585656,-6.58566 3.643488,0 6.585655,2.94072 6.585655,6.58566 0,3.6008 -2.942096,6.58565 -6.585655,6.58565 z m 0,-8.82367 c -1.229219,0 -2.195231,1.01011 -2.195231,2.19523 0,1.18512 1.010109,2.19523 2.195231,2.19523 1.185121,0 2.19523,-1.01011 2.19523,-2.19523 0,-1.18512 -0.966011,-2.19523 -2.19523,-2.19523 z"
       id="path3070"
       style="stroke-width:0.352778" />
    <path
       d="M 95.519987,126.01079 H 65.79846 c -1.229219,0 -2.19523,-0.96601 -2.19523,-2.19523 0,-1.22922 0.966011,-2.19523 2.19523,-2.19523 h 29.67743 c 1.229219,0 2.19523,0.96601 2.19523,2.19523 0,1.2306 -0.966011,2.19523 -2.151133,2.19523 z"
       id="path3072"
       style="stroke-width:0.352778" />
    <path
       d="M 83.536126,110.99657 H 65.799518 c -1.229218,0 -2.19523,-0.96601 -2.19523,-2.19523 0,-1.22922 0.966012,-2.19523 2.19523,-2.19523 h 17.736608 c 1.229219,0 2.195231,0.96601 2.195231,2.19523 0,1.22922 -0.966012,2.19523 -2.195231,2.19523 z"
       id="path3074"
       style="stroke-width:0.352778" />
    <path
       d="m 61.409905,115.38865 c -3.643489,0 -6.585656,-2.94072 -6.585656,-6.58565 0,-3.64349 2.94072,-6.58566 6.585656,-6.58566 3.643488,0 6.585655,2.94072 6.585655,6.58566 0,3.64349 -2.942096,6.58565 -6.585655,6.58565 z m 0,-8.78099 c -1.229219,0 -2.195231,1.01011 -2.195231,2.19523 0,1.18512 1.010109,2.19523 2.195231,2.19523 1.185121,0 2.19523,-1.01011 2.19523,-2.19523 0,-1.18512 -0.966011,-2.19523 -2.19523,-2.19523 z"
       id="path3076"
       style="stroke-width:0.352778" />
    <path
       d="m 125.11099,154.9421 c -3.64349,0 -6.58566,-2.94072 -6.58566,-6.58566 0,-3.64349 2.94072,-6.58566 6.58566,-6.58566 3.64349,0 6.58565,2.94073 6.58565,6.58566 -0.001,3.64349 -2.94209,6.58566 -6.58565,6.58566 z m 0,-8.781 c -1.22922,0 -2.19523,1.01011 -2.19523,2.19523 0,1.18513 1.0101,2.19523 2.19523,2.19523 1.18512,0 2.19523,-1.0101 2.19523,-2.19523 0,-1.18512 -0.96601,-2.19523 -2.19523,-2.19523 z"
       id="path3078"
       style="stroke-width:0.352778" />
    <path
       d="m 125.11099,146.16146 c -1.22922,0 -2.19523,-0.96601 -2.19523,-2.19523 v -19.18512 c 0,-1.22922 0.96601,-2.19523 2.19523,-2.19523 1.22922,0 2.19523,0.96601 2.19523,2.19523 v 19.18512 c 0,1.18512 -1.01011,2.19523 -2.19523,2.19523 z"
       id="path3080"
       style="stroke-width:0.352778" />
    <path
       d="m 142.36182,154.9421 c -3.64349,0 -6.58566,-2.94072 -6.58566,-6.58566 0,-3.64349 2.94072,-6.58566 6.58566,-6.58566 3.64349,0 6.58565,2.94073 6.58565,6.58566 0,3.64349 -2.94209,6.58566 -6.58565,6.58566 z m 0,-8.781 c -1.22922,0 -2.19523,1.01011 -2.19523,2.19523 0,1.18513 1.01011,2.19523 2.19523,2.19523 1.18512,0 2.19523,-1.0101 2.19523,-2.19523 0,-1.18512 -0.96601,-2.19523 -2.19523,-2.19523 z"
       id="path3082"
       style="stroke-width:0.352778" />
    <path
       d="m 142.36182,146.16146 c -1.22922,0 -2.19523,-0.96601 -2.19523,-2.19523 v -19.18512 c 0,-1.22922 0.96601,-2.19523 2.19523,-2.19523 1.22922,0 2.19523,0.96601 2.19523,2.19523 v 19.18512 c 0,1.18512 -0.96601,2.19523 -2.19523,2.19523 z"
       id="path3084"
       style="stroke-width:0.352778" />
    <path
       d="m 72.166099,154.9421 c -3.643489,0 -6.585656,-2.94072 -6.585656,-6.58566 0,-3.64349 2.940721,-6.58566 6.585656,-6.58566 3.643489,0 6.585655,2.94073 6.585655,6.58566 0,3.64349 -2.94072,6.58566 -6.585655,6.58566 z m 0,-8.781 c -1.229219,0 -2.19523,1.01011 -2.19523,2.19523 0,1.18513 1.010108,2.19523 2.19523,2.19523 1.185122,0 2.19523,-1.0101 2.19523,-2.19523 0,-1.18512 -0.966011,-2.19523 -2.19523,-2.19523 z"
       id="path3086"
       style="stroke-width:0.352778" />
    <path
       d="m 72.166099,146.16146 c -1.229219,0 -2.19523,-0.96601 -2.19523,-2.19523 v -19.18512 c 0,-1.22922 0.966011,-2.19523 2.19523,-2.19523 1.229219,0 2.19523,0.96601 2.19523,2.19523 v 19.18512 c 0,1.18512 -0.966011,2.19523 -2.19523,2.19523 z"
       id="path3088"
       style="stroke-width:0.352778" />
    <path
       d="m 89.416932,154.9421 c -3.643489,0 -6.585656,-2.94072 -6.585656,-6.58566 0,-3.64349 2.940721,-6.58566 6.585656,-6.58566 3.643489,0 6.585655,2.94073 6.585655,6.58566 0,3.64349 -2.94072,6.58566 -6.585655,6.58566 z m 0,-8.781 c -1.229219,0 -2.19523,1.01011 -2.19523,2.19523 0,1.18513 1.010108,2.19523 2.19523,2.19523 1.185121,0 2.19523,-1.0101 2.19523,-2.19523 0,-1.18512 -0.966011,-2.19523 -2.19523,-2.19523 z"
       id="path3090"
       style="stroke-width:0.352778" />
    <path
       d="m 89.416932,146.16146 c -1.229219,0 -2.19523,-0.96601 -2.19523,-2.19523 v -19.18512 c 0,-1.22922 0.966011,-2.19523 2.19523,-2.19523 1.229219,0 2.19523,0.96601 2.19523,2.19523 v 19.18512 c 0,1.18512 -0.966011,2.19523 -2.19523,2.19523 z"
       id="path3092"
       style="stroke-width:0.352778" />
  </g>
</svg>
