<?xml version="1.0" standalone="no"?>
<!DOCTYPE svg PUBLIC "-//W3C//DTD SVG 20010904//EN"
 "http://www.w3.org/TR/2001/REC-SVG-20010904/DTD/svg10.dtd">
<svg version="1.0" xmlns="http://www.w3.org/2000/svg"
 width="512.000000pt" height="512.000000pt" viewBox="0 0 512.000000 512.000000"
 preserveAspectRatio="xMidYMid meet">

<g transform="translate(0.000000,512.000000) scale(0.100000,-0.100000)"
fill="#000000" stroke="none">
<path d="M680 4871 c-322 -81 -597 -151 -613 -154 -15 -4 -36 -16 -47 -27 -19
-19 -20 -36 -20 -550 0 -305 4 -572 11 -628 43 -402 239 -789 535 -1060 120
-110 237 -189 466 -313 l208 -114 0 -190 c0 -215 10 -276 63 -364 18 -29 51
-69 74 -89 l41 -35 -47 -46 c-59 -58 -96 -119 -115 -196 -23 -85 -23 -604 -1
-690 34 -127 112 -221 233 -278 l67 -32 1615 -3 c1781 -3 1669 -6 1772 59 93
60 154 145 183 256 22 84 22 604 -1 688 -19 77 -56 138 -114 195 l-47 46 41
36 c53 46 101 127 121 203 17 67 20 177 5 205 -15 28 -61 40 -97 25 -37 -16
-43 -31 -43 -103 0 -122 -49 -208 -148 -259 l-64 -33 -1588 0 -1588 0 -64 33
c-68 35 -118 95 -138 165 -5 20 -10 118 -10 217 l0 180 201 109 c224 122 311
176 414 259 l70 57 1346 0 c1476 0 1394 3 1470 -59 19 -16 48 -53 64 -82 24
-44 30 -69 33 -139 5 -99 23 -130 77 -130 55 0 75 33 75 122 0 131 -58 266
-144 334 l-34 27 47 46 c59 58 96 119 115 196 21 80 23 613 2 690 -32 120
-116 225 -225 278 l-66 32 -1102 3 -1103 2 0 451 c0 269 -4 458 -10 468 -5 10
-22 23 -37 29 -57 23 -1234 312 -1265 311 -18 0 -296 -67 -618 -148z m1205
-144 l570 -143 0 -540 c0 -524 -1 -542 -23 -644 -62 -281 -176 -513 -356 -722
-134 -157 -269 -256 -575 -422 l-195 -105 -115 61 c-353 188 -439 247 -592
399 -219 218 -367 502 -425 814 -17 90 -19 155 -19 629 l0 530 565 142 c311
78 572 142 580 143 8 0 271 -64 585 -142z m2931 -1141 c27 -13 67 -43 87 -66
65 -76 68 -100 65 -437 -3 -339 -4 -339 -91 -420 -84 -78 3 -73 -1409 -73
-692 0 -1258 2 -1258 5 0 3 27 41 60 86 33 44 74 105 92 135 l33 54 400 0
c367 0 403 2 440 19 86 39 138 121 138 216 0 91 -44 163 -128 208 -38 21 -54
22 -356 25 l-315 3 13 87 c7 48 15 108 18 135 l6 47 1077 0 1077 0 51 -24z
m-1614 -423 c33 -33 30 -89 -6 -119 l-27 -24 -349 0 -350 0 19 48 c10 26 24
64 31 85 l12 38 324 -3 c319 -3 324 -3 346 -25z m1614 -1920 c53 -28 99 -74
127 -127 21 -39 22 -54 25 -334 4 -331 -2 -368 -63 -439 -19 -23 -58 -53 -87
-67 l-52 -26 -1596 0 -1596 0 -52 26 c-29 14 -68 44 -87 67 -61 71 -67 108
-63 439 3 278 4 295 25 334 36 68 102 123 173 145 14 4 741 7 1615 6 l1590 -2
41 -22z"/>
<path d="M860 4503 c-310 -78 -421 -110 -437 -125 -23 -21 -23 -25 -23 -278 0
-244 1 -257 20 -278 28 -30 82 -30 110 0 19 20 20 34 20 235 l0 212 38 10 c20
6 190 48 377 95 l340 85 340 -85 c187 -47 357 -89 378 -95 l37 -10 0 -317 c0
-344 -7 -435 -46 -569 -90 -317 -299 -562 -626 -732 l-85 -45 -114 63 c-63 35
-139 81 -169 104 -235 175 -394 428 -451 716 -7 35 -21 73 -31 83 -28 28 -85
21 -111 -13 -19 -26 -19 -29 -2 -110 34 -169 98 -326 192 -468 71 -107 218
-260 320 -333 106 -76 333 -198 368 -198 32 0 200 87 325 169 105 68 258 215
333 319 106 147 180 314 223 502 14 62 18 146 21 491 l5 416 -24 26 c-20 23
-70 38 -445 132 -233 58 -433 105 -445 104 -13 0 -210 -48 -438 -106z"/>
<path d="M1653 4199 c-105 -20 -139 -59 -283 -328 -102 -190 -116 -211 -127
-195 -7 11 -43 59 -80 109 -85 112 -140 145 -239 145 -77 0 -118 -15 -172 -64
-57 -52 -86 -124 -80 -201 3 -34 13 -75 22 -93 23 -45 397 -541 432 -574 72
-67 183 -80 278 -34 31 15 67 42 80 59 45 61 450 822 463 872 46 172 -114 338
-294 304z m121 -178 c53 -56 49 -66 -179 -491 -114 -212 -220 -398 -235 -414
-22 -22 -37 -29 -69 -29 -22 0 -48 7 -57 14 -20 16 -364 472 -394 521 -51 85
5 169 105 158 34 -4 53 -24 147 -151 119 -163 134 -179 173 -179 17 0 38 6 47
13 9 6 80 131 158 277 78 146 153 275 166 288 38 34 102 31 138 -7z"/>
<path d="M3860 3491 c-81 -26 -149 -92 -170 -164 -8 -29 -10 -110 -8 -248 l3
-206 30 -49 c19 -30 49 -60 79 -79 43 -26 59 -30 121 -30 62 0 78 4 121 30 30
19 60 49 79 79 l30 49 3 206 c2 138 0 219 -8 248 -15 53 -70 117 -122 144 -44
23 -121 32 -158 20z m118 -177 c21 -24 22 -33 22 -205 0 -182 -5 -210 -39
-236 -9 -7 -29 -12 -46 -12 -16 0 -37 5 -46 12 -34 26 -39 54 -39 234 0 148 3
183 16 201 33 48 92 50 132 6z"/>
<path d="M4435 3491 c-69 -17 -125 -62 -161 -131 -17 -31 -19 -60 -19 -255 0
-243 4 -262 69 -327 94 -95 258 -87 343 16 47 57 53 94 53 318 0 199 -1 205
-25 255 -49 98 -157 149 -260 124z m104 -167 l31 -26 0 -194 c0 -194 0 -195
-25 -219 -31 -32 -75 -32 -112 -1 l-28 24 -3 184 c-3 197 2 222 48 245 37 19
55 16 89 -13z"/>
<path d="M3814 1126 c-56 -26 -98 -74 -120 -133 -17 -49 -19 -408 -2 -464 27
-93 123 -162 223 -162 100 0 196 69 223 162 17 56 15 415 -2 464 -34 93 -123
157 -221 157 -32 0 -69 -9 -101 -24z m141 -132 c37 -15 45 -56 45 -243 0 -175
-1 -181 -24 -207 -33 -39 -89 -39 -122 0 -23 26 -24 32 -24 207 0 220 8 246
82 248 14 1 34 -2 43 -5z"/>
<path d="M4382 1124 c-63 -31 -107 -88 -123 -158 -7 -32 -10 -121 -7 -241 3
-172 6 -194 25 -231 93 -176 341 -169 424 11 16 35 19 67 19 244 0 239 -6 267
-70 331 -74 74 -174 91 -268 44z m163 -149 c25 -24 25 -26 25 -212 0 -157 -3
-192 -16 -211 -23 -33 -61 -46 -96 -31 -51 21 -58 50 -58 243 0 173 0 175 26
205 33 40 83 43 119 6z"/>
<path d="M1792 964 c-175 -87 -170 -327 8 -420 29 -15 65 -19 203 -22 183 -4
216 2 236 44 15 35 14 48 -9 77 -20 26 -21 26 -195 29 -159 3 -176 5 -195 23
-34 34 -36 77 -5 113 l27 32 657 0 658 0 20 -22 c30 -33 36 -63 19 -96 -26
-50 -41 -52 -396 -52 -326 0 -329 0 -350 -22 -25 -27 -26 -69 -1 -99 l19 -24
332 -3 c284 -2 340 0 388 14 116 33 189 154 163 269 -16 71 -60 128 -123 159
l-52 26 -676 0 -676 0 -52 -26z"/>
<path d="M3820 2304 c-50 -22 -89 -61 -116 -119 -22 -47 -24 -61 -24 -245 0
-107 5 -211 10 -231 15 -52 49 -99 99 -134 39 -28 49 -30 126 -30 77 0 87 2
126 30 50 35 84 82 99 134 5 20 10 124 10 231 0 184 -2 198 -24 245 -43 92
-112 135 -213 135 -32 -1 -74 -8 -93 -16z m155 -159 c25 -24 25 -26 25 -215 0
-189 0 -191 -25 -215 -16 -17 -35 -25 -60 -25 -25 0 -44 8 -60 25 -25 24 -25
26 -25 215 0 189 0 191 25 215 16 17 35 25 60 25 25 0 44 -8 60 -25z"/>
<path d="M4382 2299 c-23 -12 -56 -38 -73 -58 -49 -59 -59 -113 -59 -311 0
-194 9 -246 55 -306 58 -77 189 -107 281 -65 49 22 111 92 124 140 5 20 10
128 10 241 0 178 -3 210 -19 245 -23 49 -74 99 -123 119 -54 23 -144 20 -196
-5z m167 -155 c20 -25 21 -40 21 -216 0 -187 0 -189 -25 -213 -15 -15 -36 -25
-54 -25 -81 0 -91 26 -91 240 0 217 8 237 92 239 28 1 41 -5 57 -25z"/>
<path d="M1857 2160 c-96 -17 -177 -100 -192 -195 -14 -95 43 -203 128 -244
43 -21 54 -21 725 -21 l683 0 49 25 c61 31 105 88 121 159 22 101 -32 210
-128 258 l-48 23 -645 2 c-355 0 -667 -3 -693 -7z m1305 -151 c66 -18 86 -91
38 -139 -20 -20 -36 -20 -680 -20 -644 0 -660 0 -680 20 -46 46 -28 121 33
139 46 13 1242 14 1289 0z"/>
</g>
</svg>
